<svg width="14" height="14" viewBox="0 0 14 14" fill="none" xmlns="http://www.w3.org/2000/svg">
<path fill-rule="evenodd" clip-rule="evenodd" d="M5.54013 0.129607C3.29002 0.623541 1.33047 2.26646 0.474488 4.37666C-0.10212 5.79821 -0.158099 7.69391 0.333413 9.15479C0.895029 10.8242 1.93802 12.1376 3.38682 12.9997C5.94689 14.5233 9.07889 14.2924 11.4827 12.4027C12.4961 11.6061 13.459 10.1032 13.8331 8.73447C14.0706 7.86518 14.0515 6.03876 13.7956 5.14941C13.088 2.6906 11.1799 0.815211 8.74986 0.190372C7.86389 -0.0374103 6.42488 -0.0646678 5.54013 0.129607ZM8.12525 1.49179C9.78678 1.82999 11.2922 2.98279 12.03 4.48195C13.7416 7.96015 11.6271 11.9667 7.77125 12.5514C6.03892 12.8141 4.33449 12.2256 3.02321 10.912C1.86115 9.74803 1.31098 8.29583 1.41167 6.65873C1.50422 5.15436 1.94434 4.18143 3.02928 3.08244C3.62434 2.47974 3.9097 2.26507 4.50372 1.97331C5.69169 1.38988 6.86068 1.2344 8.12525 1.49179ZM6.54326 2.84051C4.97894 3.07142 3.56966 4.35391 3.16342 5.91627C2.59634 8.09713 3.84973 10.3502 5.9929 11.0023C6.47558 11.1492 6.75764 11.1783 7.43416 11.151C8.18495 11.1208 8.34674 11.0832 8.94076 10.8006C9.36607 10.5983 9.78531 10.3104 10.1019 10.0031L10.5975 9.52225L10.0853 9.14299L9.57309 8.76381L9.24501 9.13491C9.06459 9.339 8.69414 9.61556 8.42178 9.7496C7.99543 9.95932 7.82429 9.99292 7.19005 9.99101C6.58667 9.98927 6.37514 9.95038 6.0202 9.77607C5.46881 9.50523 4.92851 8.96494 4.61733 8.37318C4.39514 7.95051 4.37374 7.82976 4.37374 6.99832C4.37374 6.12495 4.38613 6.06393 4.67071 5.53814C5.25902 4.45114 6.1897 3.91284 7.36337 3.98055C8.13157 4.02491 8.57707 4.22526 9.19458 4.80383L9.61468 5.19751L10.1009 4.82979L10.5872 4.46199L10.2101 4.07639C9.23704 3.08132 7.91961 2.63738 6.54326 2.84051Z" fill="#727272"/>
</svg>
