<svg width="31" height="31" viewBox="0 0 31 31" fill="none" xmlns="http://www.w3.org/2000/svg">
<rect x="10.7539" y="11.7578" width="8.48528" height="8.48528" fill="#4756DF"/>
<path d="M4.39062 8.57554C4.39062 6.81818 5.81525 5.39355 7.57261 5.39355C9.32997 5.39355 10.7546 6.81818 10.7546 8.57554V11.7575H7.5726C5.81524 11.7575 4.39062 10.3329 4.39062 8.57554Z" fill="#4756DF"/>
<path d="M25.6045 8.57554C25.6045 6.81818 24.1799 5.39355 22.4225 5.39355C20.6652 5.39355 19.2405 6.81818 19.2405 8.57554V11.7575H22.4225C24.1799 11.7575 25.6045 10.3329 25.6045 8.57554Z" fill="#4756DF"/>
<path d="M25.6045 23.4245C25.6045 25.1818 24.1799 26.6064 22.4225 26.6064C20.6652 26.6064 19.2405 25.1818 19.2405 23.4245V20.2425H22.4225C24.1799 20.2425 25.6045 21.6671 25.6045 23.4245Z" fill="#4756DF"/>
<path d="M4.39062 23.4245C4.39062 25.1818 5.81525 26.6064 7.57261 26.6064C9.32997 26.6064 10.7546 25.1818 10.7546 23.4245V20.2425H7.5726C5.81524 20.2425 4.39062 21.6671 4.39062 23.4245Z" fill="#4756DF"/>
<rect x="15" y="10" width="8.48528" height="8.48528" transform="rotate(45 15 10)" fill="#4756DF"/>
<path d="M13.25 3.25C14.4926 2.00736 16.5074 2.00736 17.75 3.25C18.9926 4.49264 18.9926 6.50736 17.75 7.75L15.5 10L13.25 7.75C12.0074 6.50736 12.0074 4.49264 13.25 3.25Z" fill="#4756DF"/>
<path d="M27.75 18.25C28.9926 17.0074 28.9926 14.9926 27.75 13.75C26.5074 12.5074 24.4926 12.5074 23.25 13.75L21 16L23.25 18.25C24.4926 19.4926 26.5074 19.4926 27.75 18.25Z" fill="#4756DF"/>
<path d="M17.25 28.75C16.0074 29.9926 13.9926 29.9926 12.75 28.75C11.5074 27.5074 11.5074 25.4926 12.75 24.25L15 22L17.25 24.25C18.4926 25.4926 18.4926 27.5074 17.25 28.75Z" fill="#4756DF"/>
<path d="M2.25 13.75C1.00736 14.9926 1.00736 17.0074 2.25 18.25C3.49264 19.4926 5.50736 19.4926 6.75 18.25L9 16L6.75 13.75C5.50736 12.5074 3.49264 12.5074 2.25 13.75Z" fill="#4756DF"/>
</svg>
