<svg width="26" height="20" viewBox="0 0 26 20" fill="none" xmlns="http://www.w3.org/2000/svg">
<g clip-path="url(#clip0_2211_3020)">
<path fill-rule="evenodd" clip-rule="evenodd" d="M-1.625 0H27.625V20H-1.625V0Z" fill="#00843D"/>
<path fill-rule="evenodd" clip-rule="evenodd" d="M8.40332 5.37109C9.46592 5.89453 10.7304 5.37109 11.1874 4.64453C11.6597 3.96484 11.7168 2.82812 10.9056 1.78516C12.1624 2.85547 12.4442 4.07031 11.8158 5.07031C10.9779 6.21484 9.12695 6.17969 8.40332 5.37109Z" fill="white"/>
<path fill-rule="evenodd" clip-rule="evenodd" d="M10.2882 2.71094L10.5015 2.71484L10.3339 2.85156L10.3986 3.07031L10.2196 2.94141L10.0482 3.07031L10.1054 2.85547L9.93398 2.71875L10.1473 2.71484L10.2196 2.5L10.2882 2.71094ZM9.2332 4.07031H9.44648L9.27891 4.21094L9.34365 4.42578L9.16465 4.29688L8.98945 4.42969L9.05039 4.21094L8.879 4.07812L9.09229 4.07031L9.16084 3.85547L9.2332 4.07031ZM9.30176 3H9.51885L9.34746 3.14062L9.41221 3.35547L9.23701 3.22656L9.06182 3.35938L9.12275 3.14062L8.95137 3.00391L9.16465 3L9.2332 2.78516L9.30176 3ZM9.30176 1.92578H9.51885L9.34365 2.07031L9.4084 2.28516L9.2332 2.16016L9.05801 2.28906L9.11895 2.07422L8.94756 1.9375L9.16084 1.93359L9.22939 1.71875L9.30176 1.92578ZM8.13252 3.28516H8.3458L8.17441 3.42578L8.23916 3.64062L8.06396 3.51172L7.88877 3.64453L7.94971 3.42578L7.77832 3.29297L7.9916 3.28516L8.06016 3.07031L8.13252 3.28516Z" fill="white"/>
<path fill-rule="evenodd" clip-rule="evenodd" d="M0.183594 0H6.45254V20H0.183594V0Z" fill="#CA3745"/>
<path fill-rule="evenodd" clip-rule="evenodd" d="M0.183594 5.21484V5.07031L0.442578 4.71484L0.393066 4.64063L0.54541 4.42969L0.495898 4.35547L0.393066 4.5L0.339746 4.42969L0.705371 3.92969L0.758691 4L0.705371 4.07031L0.812012 4.21875L1.071 3.85938L0.808203 3.51172L0.705371 3.64453L0.758691 3.71875L0.705371 3.78906L0.339746 3.28906L0.393066 3.21875L0.495898 3.35938L0.549219 3.28906L0.393066 3.07422L0.442578 3.00391L0.183594 2.64453V2.5L0.549219 3L0.495898 3.07031L0.652051 3.28516L0.549219 3.42969L0.652051 3.57031L0.812012 3.35938L1.18145 3.86719L0.812012 4.35938L0.659668 4.14453L0.553027 4.28906L0.655859 4.43359L0.503516 4.64453L0.553027 4.71875L0.187402 5.21875L0.183594 5.21484Z" fill="white" fill-opacity="0.24"/>
<path fill-rule="evenodd" clip-rule="evenodd" d="M0.183594 3.42969L0.236914 3.57031V3.78906H0.393066L0.499707 3.85938L0.393066 3.93359H0.240723V4.14453L0.187402 4.28906V3.42969H0.183594Z" fill="white" fill-opacity="0.24"/>
<path fill-rule="evenodd" clip-rule="evenodd" d="M0.183594 8.64453V8.5L0.442578 8.14453L0.393066 8.07031L0.54541 7.85547L0.495898 7.78516L0.393066 7.92969L0.339746 7.85547L0.705371 7.35547L0.758691 7.42969L0.705371 7.5L0.812012 7.64453L1.071 7.28516L0.808203 6.9375L0.705371 7.07031L0.758691 7.14453L0.705371 7.21484L0.339746 6.71484L0.393066 6.64063L0.495898 6.78125L0.549219 6.71094L0.393066 6.49609L0.442578 6.42578L0.183594 6.06641V5.92578L0.549219 6.42578L0.495898 6.49609L0.652051 6.71094L0.549219 6.85156L0.652051 6.99609L0.808203 6.78125L1.17764 7.28906L0.808203 7.78125L0.655859 7.56641L0.549219 7.71094L0.652051 7.85156L0.499707 8.06641L0.549219 8.14062L0.183594 8.64062V8.64453Z" fill="white" fill-opacity="0.24"/>
<path fill-rule="evenodd" clip-rule="evenodd" d="M0.183594 6.85547L0.236914 7V7.21484H0.393066L0.499707 7.28516L0.393066 7.35547H0.240723V7.57031L0.187402 7.71484V6.85547H0.183594Z" fill="white" fill-opacity="0.24"/>
<path fill-rule="evenodd" clip-rule="evenodd" d="M0.183594 12.0703V11.9297L0.442578 11.5703L0.393066 11.5L0.54541 11.2852L0.495898 11.2148L0.393066 11.3555L0.339746 11.2852L0.705371 10.7852L0.758691 10.8555L0.705371 10.9297L0.812012 11.0742L1.071 10.7148L0.808203 10.3633L0.705371 10.5L0.758691 10.5703L0.705371 10.6406L0.339746 10.1406L0.393066 10.0703L0.495898 10.2148L0.549219 10.1406L0.393066 9.92969L0.442578 9.85547L0.183594 9.5V9.35547L0.549219 9.85547L0.495898 9.92969L0.652051 10.1406L0.549219 10.2852L0.652051 10.4297L0.812012 10.2148L1.17764 10.7227L0.808203 11.2148L0.655859 11L0.549219 11.1406L0.652051 11.2852L0.499707 11.5L0.549219 11.5703L0.183594 12.0703Z" fill="white" fill-opacity="0.24"/>
<path fill-rule="evenodd" clip-rule="evenodd" d="M0.183594 10.2852L0.240723 10.4297V10.6445H0.393066L0.499707 10.7148L0.393066 10.7812H0.240723V10.9961L0.187402 11.1406V10.2812L0.183594 10.2852Z" fill="white" fill-opacity="0.24"/>
<path fill-rule="evenodd" clip-rule="evenodd" d="M0.183594 15.2852V15.1406L0.442578 14.7852L0.393066 14.7148L0.54541 14.5L0.495898 14.4297L0.393066 14.5703L0.339746 14.5L0.705371 14L0.758691 14.0703L0.705371 14.1406L0.812012 14.2852L1.071 13.9297L0.808203 13.5781L0.705371 13.7148L0.758691 13.7852L0.705371 13.8555L0.339746 13.3555L0.393066 13.2852L0.495898 13.4297L0.549219 13.3555L0.393066 13.1406L0.442578 13.0703L0.183594 12.7148V12.5703L0.549219 13.0703L0.495898 13.1406L0.652051 13.3555L0.549219 13.5L0.652051 13.6406L0.812012 13.4297L1.17764 13.9375L0.808203 14.4297L0.655859 14.2148L0.549219 14.3555L0.652051 14.5L0.499707 14.7148L0.549219 14.7852L0.183594 15.2852Z" fill="white" fill-opacity="0.24"/>
<path fill-rule="evenodd" clip-rule="evenodd" d="M0.183594 13.5L0.236914 13.6406V13.8555H0.393066L0.499707 13.9297L0.393066 14H0.240723V14.2148L0.187402 14.3555V13.4961L0.183594 13.5Z" fill="white" fill-opacity="0.24"/>
<path fill-rule="evenodd" clip-rule="evenodd" d="M6.45303 5.21484V5.07031L6.19404 4.71484L6.24736 4.64063L6.09121 4.42969L6.14072 4.35547L6.24736 4.5L6.30068 4.42969L5.93506 3.92969L5.88174 4L5.93506 4.07031L5.82461 4.21484L5.56943 3.85547L5.82842 3.50781L5.93506 3.64062L5.88174 3.71484L5.93125 3.78516L6.29687 3.28516L6.24736 3.21484L6.14072 3.35547L6.09121 3.28516L6.24355 3.07031L6.19404 3L6.45303 2.64062V2.5L6.09121 3L6.14072 3.07031L5.98838 3.28516L6.09121 3.42969L5.98457 3.57031L5.82842 3.35547L5.45898 3.86328L5.82842 4.35547L5.98457 4.14062L6.09121 4.28516L5.98457 4.42969L6.14072 4.64063L6.09121 4.71484L6.45303 5.21484Z" fill="white" fill-opacity="0.24"/>
<path fill-rule="evenodd" clip-rule="evenodd" d="M6.45293 3.42969L6.39961 3.57031V3.78906H6.24727L6.14062 3.85938L6.24346 3.93359H6.39961V4.14453L6.45293 4.28906V3.42969Z" fill="white" fill-opacity="0.24"/>
<path fill-rule="evenodd" clip-rule="evenodd" d="M6.47256 8.64453V8.5L6.21357 8.14453L6.26309 8.07031L6.11074 7.85547L6.16025 7.78516L6.26309 7.92969L6.31641 7.85547L5.95078 7.35547L5.89746 7.42969L5.95078 7.5L5.84414 7.64453L5.58516 7.28516L5.84795 6.9375L5.95078 7.07031L5.89746 7.14062L5.95078 7.21484L6.31641 6.71484L6.26309 6.64062L6.16025 6.78516L6.10693 6.71484L6.26309 6.5L6.21357 6.42969L6.47256 6.07031V5.92969L6.10693 6.42969L6.16025 6.5L6.0041 6.71484L6.10693 6.85547L6.0041 7L5.84795 6.78516L5.47852 7.29297L5.84795 7.78516L6.00029 7.57031L6.10693 7.71484L6.0041 7.85547L6.15645 8.07031L6.10693 8.14062L6.47256 8.64062V8.64453Z" fill="white" fill-opacity="0.24"/>
<path fill-rule="evenodd" clip-rule="evenodd" d="M6.47227 6.85547L6.41895 7V7.21484H6.25898L6.15234 7.28516L6.25898 7.35547H6.41133V7.57031L6.46846 7.71484V6.85547H6.47227Z" fill="white" fill-opacity="0.24"/>
<path fill-rule="evenodd" clip-rule="evenodd" d="M6.45303 12.0703V11.9297L6.19404 11.5703L6.24736 11.5L6.09121 11.2852L6.14072 11.2148L6.24736 11.3555L6.30068 11.2852L5.93506 10.7852L5.88174 10.8555L5.93506 10.9297L5.82461 11.0742L5.56943 10.7148L5.82842 10.3633L5.93506 10.5L5.88174 10.5703L5.93125 10.6406L6.29687 10.1406L6.24736 10.0703L6.14072 10.2148L6.09121 10.1406L6.24355 9.92969L6.19404 9.85547L6.45303 9.5V9.35547L6.09121 9.85547L6.14072 9.92969L5.98838 10.1406L6.09121 10.2852L5.98457 10.4297L5.82842 10.2148L5.45898 10.7227L5.82842 11.2148L5.98457 11L6.09121 11.1406L5.98457 11.2852L6.14072 11.5L6.09121 11.5703L6.44922 12.0703H6.45303Z" fill="white" fill-opacity="0.24"/>
<path fill-rule="evenodd" clip-rule="evenodd" d="M6.45293 10.2852L6.39961 10.4297V10.6445H6.24727L6.14062 10.7148L6.24346 10.7852H6.39961V11L6.45293 11.1445V10.2852Z" fill="white" fill-opacity="0.24"/>
<path fill-rule="evenodd" clip-rule="evenodd" d="M6.45303 15.2852V15.1406L6.19404 14.7852L6.24736 14.7148L6.09121 14.5L6.14072 14.4297L6.24736 14.5703L6.30068 14.5L5.93506 14L5.88174 14.0703L5.93506 14.1406L5.82461 14.2852L5.56943 13.9297L5.82842 13.5781L5.93506 13.7148L5.88174 13.7852L5.93125 13.8555L6.29687 13.3594L6.24736 13.2891L6.14072 13.4336L6.09121 13.3594L6.24355 13.1445L6.19404 13.0742L6.45303 12.7188V12.5742L6.09121 13.0742L6.14072 13.1445L5.98838 13.3594L6.09121 13.5039L5.98457 13.6445L5.82842 13.4336L5.45898 13.9414L5.82842 14.4336L5.98457 14.2188L6.09121 14.3594L5.98457 14.5039L6.14072 14.7187L6.09121 14.7891L6.45303 15.2891V15.2852Z" fill="white" fill-opacity="0.24"/>
<path fill-rule="evenodd" clip-rule="evenodd" d="M6.45293 13.5L6.39961 13.6406V13.8555H6.24727L6.14062 13.9297L6.24346 14H6.39961V14.2148L6.45293 14.3555V13.4961V13.5Z" fill="white" fill-opacity="0.24"/>
<path fill-rule="evenodd" clip-rule="evenodd" d="M0.184473 1.35547V1.21484L0.443457 0.855469L0.393945 0.785156L0.546289 0.570312L0.496777 0.5L0.393945 0.644531L0.340625 0.570312L0.70625 0.0703125L0.75957 0.144531L0.70625 0.214844L0.812891 0.359375L1.07188 0H1.17852L0.812891 0.5L0.65293 0.285156L0.550098 0.429688L0.65293 0.570312L0.500586 0.785156L0.546289 0.859375L0.184473 1.35938V1.35547ZM0.184473 0H0.500586L0.393945 0.0703125H0.241602V0.285156L0.180664 0.429688V0H0.184473ZM6.45342 1.35547V1.21484L6.19443 0.855469L6.24775 0.785156L6.0916 0.570312L6.14111 0.5L6.24775 0.644531L6.29727 0.570312L5.93164 0.0703125L5.88213 0.144531L5.93164 0.214844L5.825 0.359375L5.56602 0H5.45937L5.82881 0.5L5.98496 0.285156L6.0916 0.429688L5.98496 0.570312L6.14111 0.785156L6.0916 0.855469L6.45342 1.35547ZM6.45342 0H6.14111L6.24395 0.0703125H6.4001V0.285156L6.45342 0.429688V0ZM2.79717 19.7148C2.79717 19.7148 3.02568 19.3086 3.58935 19.1875C4.15684 19.0625 4.25586 19.457 4.57959 19.457C4.90332 19.457 5.41748 19.1836 5.41748 19.1836C5.41748 19.1836 4.90332 19.7031 4.50342 19.6914C4.11113 19.6797 3.97783 19.418 3.57031 19.457C3.1666 19.4961 2.79717 19.7266 2.79717 19.7148Z" fill="white" fill-opacity="0.24"/>
<path fill-rule="evenodd" clip-rule="evenodd" d="M3.88994 19.7149C3.88994 19.7149 3.66523 19.3087 3.10156 19.1876C2.53027 19.0626 2.43506 19.4571 2.11133 19.4571C1.7876 19.4571 1.27344 19.1837 1.27344 19.1837C1.27344 19.1837 1.7876 19.7032 2.18369 19.6915C2.57979 19.6797 2.71689 19.418 3.1168 19.4571C3.52432 19.4962 3.88994 19.7266 3.88994 19.7149Z" fill="white" fill-opacity="0.24"/>
<path fill-rule="evenodd" clip-rule="evenodd" d="M2.03928 19.0432C1.98976 18.9378 1.86408 18.469 1.92883 18.4104C2.03166 18.3714 2.29826 18.8518 2.2716 19.2776C2.09641 19.3753 1.50988 19.2386 1.51369 19.1136C1.55558 18.9378 1.89074 18.9964 2.03928 19.0432Z" fill="white" fill-opacity="0.24"/>
<path fill-rule="evenodd" clip-rule="evenodd" d="M1.68091 18.6329C1.65044 18.5157 1.59712 18.0235 1.67329 17.9845C1.77612 17.9766 1.96274 18.5196 1.87515 18.9298C1.68852 18.9766 1.13247 18.6759 1.15913 18.5548C1.22768 18.3985 1.53999 18.547 1.68091 18.6329Z" fill="white" fill-opacity="0.24"/>
<path fill-rule="evenodd" clip-rule="evenodd" d="M1.39122 18.1797C1.36837 18.0547 1.36076 17.5547 1.43693 17.5312C1.53976 17.5391 1.68068 18.1094 1.5588 18.5039C1.36837 18.5195 0.842786 18.1289 0.880872 18.0156C0.957044 17.8672 1.26173 18.0664 1.39122 18.1797Z" fill="white" fill-opacity="0.24"/>
<path fill-rule="evenodd" clip-rule="evenodd" d="M1.16263 17.6953C1.15502 17.5664 1.20072 17.0703 1.2807 17.0625C1.38353 17.0898 1.4559 17.6836 1.28832 18.0469C1.1017 18.0234 0.625623 17.5273 0.678944 17.4219C0.77035 17.293 1.04838 17.5547 1.16263 17.6953Z" fill="white" fill-opacity="0.24"/>
<path fill-rule="evenodd" clip-rule="evenodd" d="M1.00312 17.1836C1.01074 17.0547 1.10976 16.5781 1.18974 16.5821C1.28496 16.6328 1.29638 17.2305 1.09453 17.5586C0.911715 17.4961 0.488961 16.9141 0.549898 16.8164C0.660347 16.7071 0.904097 17.0235 1.00693 17.1836H1.00312Z" fill="white" fill-opacity="0.24"/>
<path fill-rule="evenodd" clip-rule="evenodd" d="M1.04917 16.6016C1.03774 17.1094 0.946334 17.1172 0.782565 16.7422C0.706393 16.5977 0.698776 16.0117 0.763522 15.9883C0.858737 15.9883 1.04536 16.4063 1.04917 16.6016Z" fill="white" fill-opacity="0.24"/>
<path fill-rule="evenodd" clip-rule="evenodd" d="M4.62142 19.1019C4.67093 18.9925 4.79662 18.5237 4.73187 18.4651C4.62904 18.4261 4.36624 18.9026 4.3891 19.3323C4.56429 19.43 5.15462 19.2933 5.14701 19.1683C5.10511 18.9925 4.77376 19.0511 4.62142 19.098V19.1019Z" fill="white" fill-opacity="0.24"/>
<path fill-rule="evenodd" clip-rule="evenodd" d="M4.97921 18.6876C5.01349 18.5704 5.063 18.0782 4.99064 18.0391C4.8878 18.0313 4.69737 18.5704 4.78878 18.9845C4.97159 19.0313 5.53146 18.7306 5.50099 18.6095C5.43624 18.4493 5.12013 18.6016 4.97921 18.6876Z" fill="white" fill-opacity="0.24"/>
<path fill-rule="evenodd" clip-rule="evenodd" d="M5.26899 18.2344C5.29184 18.1094 5.29946 17.6094 5.22329 17.5859C5.12046 17.5938 4.97954 18.1602 5.10522 18.5547C5.29565 18.5703 5.82124 18.1836 5.78315 18.0664C5.69936 17.918 5.40229 18.1211 5.26899 18.2344Z" fill="white" fill-opacity="0.24"/>
<path fill-rule="evenodd" clip-rule="evenodd" d="M5.49788 17.7461C5.5055 17.6211 5.45979 17.125 5.37981 17.1172C5.27698 17.1445 5.20462 17.7383 5.3722 18.1016C5.56263 18.0781 6.03489 17.582 5.98538 17.4766C5.89016 17.3437 5.61595 17.6094 5.49788 17.7461Z" fill="white" fill-opacity="0.24"/>
<path fill-rule="evenodd" clip-rule="evenodd" d="M5.65694 17.2345C5.65313 17.1095 5.5503 16.629 5.47413 16.6368C5.3751 16.6837 5.36368 17.2852 5.56934 17.6134C5.75216 17.5509 6.1711 16.9688 6.11016 16.8712C5.99971 16.7618 5.75596 17.0782 5.65313 17.2345H5.65694Z" fill="white" fill-opacity="0.24"/>
<path fill-rule="evenodd" clip-rule="evenodd" d="M5.61133 16.6562C5.62656 17.1641 5.71416 17.168 5.87793 16.793C5.9541 16.6523 5.96172 16.0625 5.89697 16.043C5.80176 16.043 5.61514 16.4609 5.61133 16.6562Z" fill="white" fill-opacity="0.24"/>
<path fill-rule="evenodd" clip-rule="evenodd" d="M5.482 12.8477H5.17026V13.0622H4.86987V13.2767H3.66828L3.46424 13.4973L3.56626 13.6076H4.0707L4.16705 13.4973H3.66828L3.76463 13.387H4.46745L4.16705 13.7118H3.4699L3.27153 13.6076L3.06749 13.7118H2.36467L2.06428 13.387H2.76709L2.86911 13.4973H2.36467L2.46669 13.6076H2.97113L3.06749 13.4973L2.86911 13.2767H1.76388V13.0622H1.46348V12.8477H1.16309V11.8673H1.46348V11.6528H1.76388V11.4322H2.86911L3.06749 11.2177L2.97113 11.1074H2.46669L2.36467 11.2177H2.86911L2.76709 11.3219H2.06428L2.36467 10.9971H3.07315L3.2772 11.1074L3.47557 10.9971H4.17839L4.47878 11.3219H3.77597L3.67962 11.2177H4.17839L4.07637 11.1074H3.57759L3.4699 11.2177L3.67395 11.4322H4.87553V11.6528H5.17593V11.8673H5.482V12.8477Z" fill="#CA3745"/>
<path fill-rule="evenodd" clip-rule="evenodd" d="M2.3634 10.9941H3.07385L3.27716 11.104L3.47481 10.9941H4.17962L4.48553 11.3249H3.7747L3.67282 11.2148H4.1716L4.0751 11.1104H3.57878L3.47398 11.2178L3.67515 11.4292H4.87842V11.6498H5.17882V11.8643H5.48488V12.8478H5.48198V12.8508H5.17315V13.0653H4.87276V13.2798H3.66951L3.46823 13.4974L3.56749 13.6047H4.06938L4.16052 13.5004H3.66175L3.76331 13.3841H4.4742L4.16828 13.7148H3.46918L3.27149 13.611L3.06815 13.7148H2.3634L2.05748 13.3841H2.76832L2.87586 13.5004H2.37142L2.46792 13.6047H2.96981L3.06353 13.4974L2.86782 13.2798H1.76095V13.0653H1.46055V12.8508H1.16016V11.8643H1.46055V11.6498H1.76095V11.4292H2.86784L3.06351 11.2177L2.96981 11.1104H2.46792L2.37142 11.2148H2.87614L2.76827 11.3249H2.05748L2.3634 10.9941ZM5.47907 12.8448V11.8703H5.173V11.6558H4.8726V11.4352H3.6727L3.46579 11.2177L3.57637 11.1044H4.0776L4.18514 11.2207H3.68637L3.7772 11.3189H4.47199L4.17712 11.0001H3.47629L3.2772 11.1108L3.07241 11.0001H2.3659L2.07103 11.3189H2.76587L2.86205 11.2207H2.35788L2.46542 11.1044H2.97241L3.07142 11.2178L2.87034 11.4352H1.76677V11.6558H1.46637V11.8703H1.16598V12.8448H1.46637V13.0593H1.76677V13.2738H2.87037L3.0714 13.4973L2.97241 13.6107H2.46542L2.35788 13.4944H2.86232L2.76582 13.3901H2.07103L2.3659 13.7089H3.06678L3.27153 13.6043L3.47059 13.7089H4.16578L4.46066 13.3901H3.76591L3.67477 13.4944H4.17355L4.07198 13.6107H3.56499L3.46021 13.4974L3.66701 13.2738H4.86694V13.0593H5.16733V12.8448H5.47907Z" fill="black"/>
<path fill-rule="evenodd" clip-rule="evenodd" d="M1.26367 11.9817V12.7416H1.56406V12.9561H1.86446V13.1705H2.87049L3.2729 13.4984L3.67248 13.1736H4.7777V12.9591L5.07809 12.9561V12.7416H5.38415V11.9786H5.08092V11.7641H4.78053V11.5435H3.67531L3.27574 11.2188L2.87332 11.5435H1.86729V11.7641H1.5669V11.9786H1.26651L1.26367 11.9817Z" fill="#00843D"/>
<path fill-rule="evenodd" clip-rule="evenodd" d="M3.27564 11.1924L3.68227 11.5229H4.80076V11.7435H5.10115V11.958H5.40438V12.7627H5.09832V12.977L4.79793 12.9801V13.1947H3.67943L3.27275 13.5253L2.86324 13.1917H1.84395V12.9772H1.54356V12.7627H1.24316V11.9736L1.25761 11.958H1.54639V11.7435H1.84678V11.5229H2.86613L3.27564 11.1924ZM3.27555 11.2456L2.88023 11.5647H1.88752V11.7853H1.58713V11.9998H1.2839V12.7209H1.58429V12.9354H1.88468V13.1499H2.87745L3.27278 13.472L3.66525 13.153H4.75719V12.9387L5.05758 12.9356V12.7209H5.36364V11.9998H5.06042V11.7853H4.76002V11.5647H3.66808L3.27555 11.2456Z" fill="white" fill-opacity="0.24"/>
<path fill-rule="evenodd" clip-rule="evenodd" d="M2.66807 11.6494L2.06641 12.193V11.6494H2.66807ZM3.87141 11.6494L4.47688 12.193V11.6494H3.87141ZM2.66807 13.0628L2.06641 12.5192V13.0628H2.66807ZM3.87141 13.0628L4.47688 12.5192V13.0628H3.87141ZM4.07323 11.9756L3.87141 12.193H4.27506L4.07323 11.9756ZM2.46625 11.9756L2.26823 12.193H2.66807L2.46625 11.9756ZM2.46625 12.7367L2.26823 12.5192H2.66807L2.46625 12.7367ZM4.07323 12.7367L3.87141 12.5192H4.27506L4.07323 12.7367Z" fill="#CA3745"/>
<path fill-rule="evenodd" clip-rule="evenodd" d="M3.27018 13.2809L3.06836 13.0635H3.47201L3.27018 13.2809ZM3.27018 12.1937L3.06836 11.9762H3.47201L3.27018 12.1937ZM3.27018 11.4326L3.06836 11.655H3.47201L3.27018 11.4326ZM3.27018 12.5199L3.06836 12.7373H3.47201L3.27018 12.5199Z" fill="white" fill-opacity="0.24"/>
<path fill-rule="evenodd" clip-rule="evenodd" d="M3.87402 12.1963H4.27927V12.3035H3.87686L3.87402 12.1963Z" fill="white" fill-opacity="0.24"/>
<path fill-rule="evenodd" clip-rule="evenodd" d="M3.87207 12.1943H4.28027V12.3046H3.87498L3.87207 12.1943ZM3.87506 12.1973L3.87781 12.3016H4.27736V12.1973H3.87506Z" fill="black"/>
<path fill-rule="evenodd" clip-rule="evenodd" d="M2.36914 12.3027H2.56751V12.413H2.36914V12.3027ZM3.97596 12.3027H4.17433V12.413H3.97596V12.3027Z" fill="#CC0000"/>
<path fill-rule="evenodd" clip-rule="evenodd" d="M2.36719 12.3018H2.56847V12.415H2.36719V12.3018ZM2.3701 12.3047V12.4121H2.56556V12.3047H2.3701ZM3.974 12.3018H4.17529V12.415H3.974V12.3018ZM3.97691 12.3047V12.4121H4.17238V12.3047H3.97691Z" fill="black"/>
<path fill-rule="evenodd" clip-rule="evenodd" d="M3.07129 11.6533H3.47087V11.7606H3.07129V11.6533ZM3.07129 11.8678H3.47087V11.9781H3.07129V11.8678Z" fill="#990000"/>
<path fill-rule="evenodd" clip-rule="evenodd" d="M3.07031 11.6523H3.4728V11.7626H3.07031V11.6523ZM3.07322 11.6553V11.7596H3.46989V11.6553H3.07322ZM3.07031 11.8668H3.4728V11.9801H3.07031V11.8668ZM3.07322 11.8698V11.9771H3.46989V11.8698H3.07322Z" fill="black"/>
<path fill-rule="evenodd" clip-rule="evenodd" d="M2.96973 11.7607H3.57335V11.871H2.96973V11.7607ZM3.07175 12.7412H3.47133V12.8454H3.07175V12.7412ZM3.07175 12.9557H3.47133V13.063H3.07175V12.9557ZM2.96973 12.8485H3.57335V12.9557H2.96973V12.8485Z" fill="#990000"/>
<path fill-rule="evenodd" clip-rule="evenodd" d="M2.96875 11.7598H3.57528V11.8731H2.96875V11.7598ZM2.97166 11.7627V11.8701H3.57237V11.7627H2.97166ZM3.07077 12.7403H3.47326V12.8474H3.07077V12.7403ZM3.07368 12.7432V12.8444H3.47035V12.7432H3.07368ZM2.96875 12.8475H3.57528V12.9577H3.47326V13.065H3.07077V12.9577H2.96875V12.8475ZM3.57237 12.9547V12.8505H2.97166V12.9547H3.57237ZM3.07368 12.9577V13.062H3.47035V12.9577H3.07368Z" fill="black"/>
<path fill-rule="evenodd" clip-rule="evenodd" d="M3.87397 12.4138H4.27922V12.5211H3.87681L3.87397 12.4138ZM2.26715 12.1963H2.66957V12.3035H2.26715V12.1963ZM2.26715 12.4108H2.66957V12.5211H2.26715V12.4108ZM2.16797 12.3035H2.36634V12.4138H2.16797V12.3035ZM2.57038 12.3035H2.76875V12.4138H2.57038V12.3035ZM3.77479 12.3035H3.97316V12.4138H3.77479V12.3035ZM4.1772 12.3035H4.37557V12.4138H4.1772V12.3035Z" fill="white" fill-opacity="0.24"/>
<path fill-rule="evenodd" clip-rule="evenodd" d="M2.2652 12.1943H2.67052V12.3016H2.76971V12.4149H2.67052V12.5221H2.2652V12.4149H2.16602V12.3016H2.2652V12.1943ZM2.26811 12.3016H2.66761V12.1973H2.26811V12.3016ZM2.56843 12.3046H2.3673V12.4088H2.56843V12.3046ZM2.56843 12.4118H2.3673V12.4149H2.26811V12.5191H2.66761V12.4149H2.56843V12.4118ZM2.67052 12.4119V12.4088H2.57134V12.3046H2.7668V12.4119H2.67052ZM2.66761 12.4119H2.57134V12.4118H2.66761V12.4119ZM2.26811 12.4119H2.36439V12.4118H2.26811V12.4119ZM2.36439 12.4088V12.3046H2.16893V12.4119H2.2652V12.4088H2.36439ZM3.77283 12.3016H3.97411V12.4119H4.17525V12.3016H4.37653V12.4149H4.28017V12.5221H3.87489L3.87206 12.4149H3.77283V12.3016ZM3.97121 12.4119V12.3046H3.77574V12.4119H3.97121ZM3.87497 12.4149L3.87772 12.5191H4.27727V12.4149H3.87497ZM4.37362 12.4119V12.3046H4.17815V12.4119H4.37362Z" fill="black"/>
<path d="M3.02551 12.9243C3.03959 12.9243 3.05101 12.9119 3.05101 12.8967C3.05101 12.8815 3.03959 12.8691 3.02551 12.8691C3.01142 12.8691 3 12.8815 3 12.8967C3 12.9119 3.01142 12.9243 3.02551 12.9243Z" fill="white"/>
<path d="M3.27258 12.9243C3.28666 12.9243 3.29808 12.9119 3.29808 12.8967C3.29808 12.8815 3.28666 12.8691 3.27258 12.8691C3.25849 12.8691 3.24707 12.8815 3.24707 12.8967C3.24707 12.9119 3.25849 12.9243 3.27258 12.9243Z" fill="white"/>
<path d="M3.52355 12.9243C3.53764 12.9243 3.54906 12.9119 3.54906 12.8967C3.54906 12.8815 3.53764 12.8691 3.52355 12.8691C3.50947 12.8691 3.49805 12.8815 3.49805 12.8967C3.49805 12.9119 3.50947 12.9243 3.52355 12.9243Z" fill="white"/>
<path d="M3.12414 12.8208C3.13822 12.8208 3.14964 12.8084 3.14964 12.7932C3.14964 12.778 3.13822 12.7656 3.12414 12.7656C3.11005 12.7656 3.09863 12.778 3.09863 12.7932C3.09863 12.8084 3.11005 12.8208 3.12414 12.8208Z" fill="white"/>
<path d="M3.42101 12.8208C3.4351 12.8208 3.44652 12.8084 3.44652 12.7932C3.44652 12.778 3.4351 12.7656 3.42101 12.7656C3.40693 12.7656 3.39551 12.778 3.39551 12.7932C3.39551 12.8084 3.40693 12.8208 3.42101 12.8208Z" fill="white"/>
<path d="M3.12023 13.0337C3.13432 13.0337 3.14574 13.0213 3.14574 13.0061C3.14574 12.9909 3.13432 12.9785 3.12023 12.9785C3.10615 12.9785 3.09473 12.9909 3.09473 13.0061C3.09473 13.0213 3.10615 13.0337 3.12023 13.0337Z" fill="white"/>
<path d="M3.42101 13.0386C3.4351 13.0386 3.44652 13.0262 3.44652 13.011C3.44652 12.9957 3.4351 12.9834 3.42101 12.9834C3.40693 12.9834 3.39551 12.9957 3.39551 13.011C3.39551 13.0262 3.40693 13.0386 3.42101 13.0386Z" fill="white"/>
<path d="M3.8214 12.3813C3.83549 12.3813 3.84691 12.369 3.84691 12.3537C3.84691 12.3385 3.83549 12.3262 3.8214 12.3262C3.80732 12.3262 3.7959 12.3385 3.7959 12.3537C3.7959 12.369 3.80732 12.3813 3.8214 12.3813Z" fill="white"/>
<path d="M4.07238 12.3813C4.08647 12.3813 4.09789 12.369 4.09789 12.3537C4.09789 12.3385 4.08647 12.3262 4.07238 12.3262C4.05829 12.3262 4.04688 12.3385 4.04688 12.3537C4.04688 12.369 4.05829 12.3813 4.07238 12.3813Z" fill="white"/>
<path d="M4.32336 12.3813C4.33744 12.3813 4.34886 12.369 4.34886 12.3537C4.34886 12.3385 4.33744 12.3262 4.32336 12.3262C4.30927 12.3262 4.29785 12.3385 4.29785 12.3537C4.29785 12.369 4.30927 12.3813 4.32336 12.3813Z" fill="white"/>
<path d="M3.92394 12.272C3.93803 12.272 3.94945 12.2596 3.94945 12.2444C3.94945 12.2291 3.93803 12.2168 3.92394 12.2168C3.90986 12.2168 3.89844 12.2291 3.89844 12.2444C3.89844 12.2596 3.90986 12.272 3.92394 12.272Z" fill="white"/>
<path d="M4.22082 12.272C4.2349 12.272 4.24632 12.2596 4.24632 12.2444C4.24632 12.2291 4.2349 12.2168 4.22082 12.2168C4.20673 12.2168 4.19531 12.2291 4.19531 12.2444C4.19531 12.2596 4.20673 12.272 4.22082 12.272Z" fill="white"/>
<path d="M3.92004 12.4848C3.93412 12.4848 3.94554 12.4725 3.94554 12.4573C3.94554 12.442 3.93412 12.4297 3.92004 12.4297C3.90595 12.4297 3.89453 12.442 3.89453 12.4573C3.89453 12.4725 3.90595 12.4848 3.92004 12.4848Z" fill="white"/>
<path d="M4.22082 12.4897C4.2349 12.4897 4.24632 12.4774 4.24632 12.4621C4.24632 12.4469 4.2349 12.4346 4.22082 12.4346C4.20673 12.4346 4.19531 12.4469 4.19531 12.4621C4.19531 12.4774 4.20673 12.4897 4.22082 12.4897Z" fill="white"/>
<path d="M3.0216 11.8423C3.03569 11.8423 3.0471 11.8299 3.0471 11.8147C3.0471 11.7995 3.03569 11.7871 3.0216 11.7871C3.00751 11.7871 2.99609 11.7995 2.99609 11.8147C2.99609 11.8299 3.00751 11.8423 3.0216 11.8423Z" fill="white"/>
<path d="M3.27258 11.8423C3.28666 11.8423 3.29808 11.8299 3.29808 11.8147C3.29808 11.7995 3.28666 11.7871 3.27258 11.7871C3.25849 11.7871 3.24707 11.7995 3.24707 11.8147C3.24707 11.8299 3.25849 11.8423 3.27258 11.8423Z" fill="white"/>
<path d="M3.52355 11.8374C3.53764 11.8374 3.54906 11.825 3.54906 11.8098C3.54906 11.7946 3.53764 11.7822 3.52355 11.7822C3.50947 11.7822 3.49805 11.7946 3.49805 11.8098C3.49805 11.825 3.50947 11.8374 3.52355 11.8374Z" fill="white"/>
<path d="M3.12023 11.7339C3.13432 11.7339 3.14574 11.7215 3.14574 11.7063C3.14574 11.6911 3.13432 11.6787 3.12023 11.6787C3.10615 11.6787 3.09473 11.6911 3.09473 11.7063C3.09473 11.7215 3.10615 11.7339 3.12023 11.7339Z" fill="white"/>
<path d="M3.42101 11.7339C3.4351 11.7339 3.44652 11.7215 3.44652 11.7063C3.44652 11.6911 3.4351 11.6787 3.42101 11.6787C3.40693 11.6787 3.39551 11.6911 3.39551 11.7063C3.39551 11.7215 3.40693 11.7339 3.42101 11.7339Z" fill="white"/>
<path d="M3.12023 11.9458C3.13432 11.9458 3.14574 11.9334 3.14574 11.9182C3.14574 11.903 3.13432 11.8906 3.12023 11.8906C3.10615 11.8906 3.09473 11.903 3.09473 11.9182C3.09473 11.9334 3.10615 11.9458 3.12023 11.9458Z" fill="white"/>
<path d="M3.42101 11.9507C3.4351 11.9507 3.44652 11.9383 3.44652 11.9231C3.44652 11.9079 3.4351 11.8955 3.42101 11.8955C3.40693 11.8955 3.39551 11.9079 3.39551 11.9231C3.39551 11.9383 3.40693 11.9507 3.42101 11.9507Z" fill="white"/>
<path d="M2.21789 12.3911C2.23197 12.3911 2.24339 12.3787 2.24339 12.3635C2.24339 12.3483 2.23197 12.3359 2.21789 12.3359C2.2038 12.3359 2.19238 12.3483 2.19238 12.3635C2.19238 12.3787 2.2038 12.3911 2.21789 12.3911Z" fill="white"/>
<path d="M2.46886 12.3911C2.48295 12.3911 2.49437 12.3787 2.49437 12.3635C2.49437 12.3483 2.48295 12.3359 2.46886 12.3359C2.45478 12.3359 2.44336 12.3483 2.44336 12.3635C2.44336 12.3787 2.45478 12.3911 2.46886 12.3911Z" fill="white"/>
<path d="M2.72082 12.3862C2.7349 12.3862 2.74632 12.3739 2.74632 12.3586C2.74632 12.3434 2.7349 12.3311 2.72082 12.3311C2.70673 12.3311 2.69531 12.3434 2.69531 12.3586C2.69531 12.3739 2.70673 12.3862 2.72082 12.3862Z" fill="white"/>
<path d="M2.32043 12.2817C2.33451 12.2817 2.34593 12.2694 2.34593 12.2541C2.34593 12.2389 2.33451 12.2266 2.32043 12.2266C2.30634 12.2266 2.29492 12.2389 2.29492 12.2541C2.29492 12.2694 2.30634 12.2817 2.32043 12.2817Z" fill="white"/>
<path d="M2.6173 12.2817C2.63139 12.2817 2.64281 12.2694 2.64281 12.2541C2.64281 12.2389 2.63139 12.2266 2.6173 12.2266C2.60322 12.2266 2.5918 12.2389 2.5918 12.2541C2.5918 12.2694 2.60322 12.2817 2.6173 12.2817Z" fill="white"/>
<path d="M2.31652 12.4946C2.33061 12.4946 2.34203 12.4823 2.34203 12.467C2.34203 12.4518 2.33061 12.4395 2.31652 12.4395C2.30244 12.4395 2.29102 12.4518 2.29102 12.467C2.29102 12.4823 2.30244 12.4946 2.31652 12.4946Z" fill="white"/>
<path d="M2.6173 12.4995C2.63139 12.4995 2.64281 12.4871 2.64281 12.4719C2.64281 12.4567 2.63139 12.4443 2.6173 12.4443C2.60322 12.4443 2.5918 12.4567 2.5918 12.4719C2.5918 12.4871 2.60322 12.4995 2.6173 12.4995Z" fill="white"/>
<path fill-rule="evenodd" clip-rule="evenodd" d="M3.66484 9.99219L3.83623 9.90625L4.01143 9.99219H3.66484ZM3.14688 9.99219L3.31826 9.90625L3.49346 9.99219H3.14688ZM2.62891 9.99219L2.80029 9.90625L2.97549 9.99219H2.62891ZM3.66484 8.07812L3.83623 8.16406L4.01143 8.08203H3.66484V8.07812ZM3.14688 8.07812L3.31826 8.16406L3.49346 8.08203H3.14688V8.07812ZM2.62891 8.07812L2.80029 8.16406L2.97549 8.08203H2.62891V8.07812Z" fill="white"/>
<path fill-rule="evenodd" clip-rule="evenodd" d="M3.52041 10.2383L3.31855 10.4062L3.1167 10.2383L2.91484 10.4062L2.71299 10.2383V10.3242L2.8501 10.4023L2.78154 10.4883V10.5703H2.8501L2.91484 10.4922L2.9834 10.5703H3.05195V10.4922L2.9834 10.4062L3.1167 10.3242L3.25381 10.4023L3.18525 10.4883V10.5703H3.25381L3.31855 10.4922L3.38711 10.5703H3.45186V10.4922L3.38711 10.4062L3.52041 10.3242L3.65371 10.4023L3.58896 10.4883V10.5703H3.65371L3.72227 10.4922L3.79082 10.5703H3.85557V10.4922L3.79082 10.4062L3.92412 10.3242V10.2344L3.72227 10.4023L3.52041 10.2344V10.2383ZM3.52041 7.83203L3.31855 7.66406L3.1167 7.83203L2.91484 7.66406L2.71299 7.83203V7.75L2.8501 7.66406L2.78154 7.58594V7.5H2.8501L2.91484 7.58203L2.9834 7.5H3.05195V7.58203L2.9834 7.66797L3.1167 7.74609L3.25381 7.66797L3.18525 7.58203V7.5H3.25381L3.31855 7.58203L3.38711 7.5H3.45186V7.58203L3.38711 7.66797L3.52041 7.74609L3.65371 7.66797L3.58896 7.58203V7.5H3.65371L3.72227 7.58203L3.79082 7.5H3.85557V7.58203L3.79082 7.66797L3.92412 7.74609V7.83203L3.72227 7.66406L3.52041 7.83203ZM5.04385 9.21484L5.26475 9.03516L5.04766 8.85547L5.26475 8.67578L5.04766 8.49609H5.1543L5.26475 8.61328L5.37139 8.55469H5.47803V8.61719L5.37139 8.67578L5.47803 8.73438V8.79687H5.37139L5.26475 8.73438L5.1543 8.85547L5.26475 8.97266L5.37139 8.91797H5.47803V8.97656L5.37139 9.03516L5.47803 9.09375V9.15625H5.37139L5.26475 9.09375L5.1543 9.21484L5.26475 9.33203L5.37139 9.27344H5.47803V9.33594L5.37139 9.39453L5.47803 9.45703V9.51563H5.37139L5.26475 9.45703L5.1543 9.57422H5.04766L5.26475 9.39453L5.04766 9.21484H5.04385ZM1.59326 9.21484L1.37617 9.03516L1.59326 8.85547L1.37617 8.67578L1.59326 8.49609H1.48281L1.37617 8.61328L1.26953 8.55469H1.15527V8.61719L1.26953 8.67187L1.15908 8.73047V8.79297H1.26953L1.37617 8.73047L1.48281 8.85156L1.37617 8.96875L1.26953 8.91406H1.15527V8.97266L1.26572 9.03125L1.15527 9.08984V9.15234H1.26953L1.37617 9.08984L1.48281 9.21094L1.37617 9.33203L1.26953 9.27344H1.15527V9.33203L1.26572 9.39062L1.15527 9.45312V9.51172H1.26953L1.37617 9.45312L1.48281 9.57031H1.59326L1.37617 9.39062L1.59326 9.21094V9.21484Z" fill="#00843D"/>
<path fill-rule="evenodd" clip-rule="evenodd" d="M5.13019 9.82703H5.21792V9.90668H5.13019V9.82703ZM5.04245 9.90668H5.13019V9.99102H5.04732L5.04245 9.90668ZM4.61352 10.3237H4.70125V10.408H4.61352V10.3237ZM4.70125 10.2394H4.78411V10.3237H4.70125V10.2394ZM1.84982 10.2394H1.93756V10.3237H1.84495L1.84982 10.2394ZM1.41602 9.82703H1.50375V9.90668H1.41602V9.82703ZM1.50375 9.90668H1.59149V9.99102H1.50375V9.90668ZM1.50375 8.07932H1.59149V8.16366H1.50375V8.07932ZM1.41602 8.16366H1.50375V8.248H1.41602V8.16366ZM1.93756 7.66699H2.02042V7.75133H1.94243L1.93756 7.66699ZM1.84982 7.75133H1.93756V7.83567H1.84495L1.84982 7.75133ZM4.61352 7.66699H4.70125V7.75133H4.61352V7.66699ZM4.70125 7.75133H4.78411V7.83567H4.70125V7.75133ZM5.04245 8.07932H5.13019V8.16366H5.04732L5.04245 8.07932ZM5.13019 8.16835H5.21792V8.248H5.13019V8.16835ZM1.94243 10.3237H2.0253V10.408H1.94243V10.3237Z" fill="#00843D"/>
<path fill-rule="evenodd" clip-rule="evenodd" d="M1.92931 7.66016H2.02677V7.75902H1.9439V7.84336H1.8367L1.84242 7.7445H1.93419L1.92931 7.66016ZM1.94837 7.7445H2.01261V7.67468H1.94434L1.94837 7.7445ZM1.92975 7.75902H1.85576L1.85172 7.82884H1.92975V7.75902ZM4.6057 7.66016H4.7076V7.7445H4.79046V7.84336H4.69344V7.75902H4.6057V7.66016ZM4.7076 7.75902V7.82884H4.7763V7.75902H4.7076ZM4.69344 7.7445V7.67468H4.61986V7.7445H4.69344ZM1.49594 8.07248H1.59783V8.17134H1.5101V8.25568H1.4082V8.15682H1.49594V8.07248ZM1.49594 8.17134H1.42236V8.24116H1.49594V8.17134ZM1.5101 8.15682H1.58368V8.087H1.5101V8.15682ZM5.0342 8.07248H5.13653V8.16151H5.22427V8.25568H5.12237V8.17134H5.03992L5.0342 8.07248ZM5.13653 8.17603V8.24116H5.21011V8.17603H5.13653ZM5.12237 8.15682V8.087H5.04922L5.05326 8.15682H5.12237ZM1.4082 9.82019H1.5101V9.89985H1.59783V9.99871H1.49594V9.91437H1.4082V9.82019ZM1.5101 9.91437V9.98419H1.58368V9.91437H1.5101ZM1.49594 9.89985V9.83471H1.42236V9.89985H1.49594ZM5.12237 9.82019H5.22427V9.91437H5.13653V9.99871H5.03992L5.0342 9.89985H5.12237V9.82019ZM5.12237 9.91437H5.04922L5.05326 9.98419H5.12237V9.91437ZM5.13653 9.89985H5.21011V9.83471H5.13653V9.89985ZM1.84242 10.2325H1.9439V10.3169H2.03164V10.4157H1.93462V10.3314H1.8367L1.84242 10.2325ZM1.94878 10.3314V10.4012H2.01748V10.3314H1.94878ZM1.92975 10.3169V10.247H1.85576L1.85172 10.3169H1.92975ZM4.69344 10.2325H4.79046V10.3314H4.7076V10.4157H4.6057V10.3169H4.69344V10.2325ZM4.69344 10.3314H4.61986V10.4012H4.69344V10.3314ZM4.7076 10.3169H4.7763V10.247H4.7076V10.3169Z" fill="black"/>
<path fill-rule="evenodd" clip-rule="evenodd" d="M3.05596 9.03516H2.80078V8.87109H2.97217V8.71875H3.13975V8.57812H3.31113V8.75391C3.17022 8.75391 3.05596 8.87109 3.05596 9.03516Z" fill="white"/>
<path fill-rule="evenodd" clip-rule="evenodd" d="M3.56572 9.03516H3.8209V8.87109H3.64951V8.71875H3.47812V8.57812H3.31055V8.75391C3.45146 8.75391 3.56572 8.87109 3.56572 9.03516Z" fill="white" fill-opacity="0.24"/>
<path fill-rule="evenodd" clip-rule="evenodd" d="M3.56572 9.03516H3.8209V9.19922H3.64951V9.35156H3.47812V9.49219H3.31055V9.31641C3.45146 9.31641 3.56572 9.19922 3.56572 9.03516Z" fill="white"/>
<path fill-rule="evenodd" clip-rule="evenodd" d="M3.05596 9.03516H2.80078V9.19922H2.97217V9.35156H3.13975V9.49219H3.31113V9.31641C3.17022 9.31641 3.05596 9.19922 3.05596 9.03516Z" fill="white" fill-opacity="0.24"/>
<path fill-rule="evenodd" clip-rule="evenodd" d="M3.56572 9.03516H3.31055V8.75391C3.45146 8.75391 3.56572 8.88281 3.56572 9.03516Z" fill="#00843D"/>
<path fill-rule="evenodd" clip-rule="evenodd" d="M3.56572 9.03516H3.31055V9.31641C3.45146 9.31641 3.56572 9.19141 3.56572 9.03516Z" fill="#CA3745"/>
<path fill-rule="evenodd" clip-rule="evenodd" d="M3.05566 9.03516H3.31084V9.31641C3.16992 9.31641 3.05566 9.19141 3.05566 9.03516Z" fill="#00843D"/>
<path fill-rule="evenodd" clip-rule="evenodd" d="M3.05566 9.03516H3.31084V8.75391C3.16992 8.75391 3.05566 8.88281 3.05566 9.03516Z" fill="#CA3745"/>
<path fill-rule="evenodd" clip-rule="evenodd" d="M3.57793 10.0742L3.31895 9.90625L3.05996 10.0742L2.80098 9.90625L2.54199 10.0742V9.99219L2.71338 9.90625L2.62959 9.82422V9.74219H2.71338L2.80098 9.82422L2.88857 9.74219H2.97617V9.82422L2.88857 9.90625L3.05996 9.99219L3.23516 9.90625L3.14756 9.82422V9.74219H3.23516L3.31895 9.82422L3.40654 9.74219H3.49414V9.82422L3.40654 9.90625L3.57793 9.99219L3.75312 9.90625L3.66553 9.82422V9.74219H3.75312L3.83691 9.82422L3.92451 9.74219H4.01211V9.82422L3.92451 9.90625L4.0959 9.99219V10.0703L3.83691 9.90625L3.57793 10.0742ZM3.57793 8L3.31895 8.16406L3.05996 8L2.80098 8.16406L2.54199 8V8.07813L2.71338 8.16406L2.62959 8.24609V8.33203H2.71338L2.80098 8.24609L2.88857 8.33203H2.97617V8.24219L2.88857 8.16406L3.05996 8.07813L3.23516 8.16016L3.14756 8.24219V8.32813H3.23516L3.31895 8.24219L3.40654 8.32813H3.49414V8.24219L3.40654 8.16406L3.57793 8.07813L3.75312 8.16016L3.66553 8.24219V8.32813H3.75312L3.83691 8.24219L3.92451 8.32813H4.01211V8.24219L3.92451 8.16406L4.0959 8.07813V7.99609L3.83691 8.16016L3.57793 7.99609V8ZM4.53008 9.24219L4.40059 9.03516L4.53008 8.82813L4.40059 8.62109L4.53008 8.41406H4.46533L4.40059 8.55078L4.33584 8.48047H4.27109V8.55078L4.33584 8.62109L4.27109 8.69141V8.75781H4.33584L4.40059 8.69141L4.46533 8.82813L4.40059 8.96484L4.33584 8.89844H4.27109V8.96484L4.33584 9.03516L4.27109 9.10547V9.17578H4.33584L4.40059 9.10547L4.46533 9.24219L4.40059 9.38281L4.33584 9.3125H4.27109V9.38281L4.33584 9.44922L4.27109 9.51953V9.58984H4.33584L4.40059 9.51953L4.46533 9.66016H4.53008L4.40059 9.44922L4.53008 9.24219Z" fill="#00843D"/>
<path fill-rule="evenodd" clip-rule="evenodd" d="M2.54325 8.08407L2.20205 8.41206V9.65842L2.54325 9.99109H4.10301L4.4442 9.6631V8.41675L4.09813 8.08407H2.54325ZM2.45551 7.83105L1.59277 8.66508V9.41477L2.46039 10.2394H4.18587L5.04861 9.41008V8.6604L4.18587 7.83105H2.46039H2.45551Z" fill="#00843D"/>
<path fill-rule="evenodd" clip-rule="evenodd" d="M2.45144 7.82129H4.18927L5.05772 8.65612V9.41419L4.18927 10.249H2.45636L1.58301 9.41891V8.66082L2.45144 7.82129ZM2.45893 7.84065L1.60188 8.66917V9.41046L2.46376 10.2297H4.18181L5.03884 9.4058V8.6645L4.18181 7.84065H2.45893ZM2.53919 8.07431H4.10154L4.45331 8.41247V9.66721L4.10641 10.0007H2.53915L2.19229 9.66249V8.40778L2.53919 8.07431ZM2.54665 8.09367L2.21116 8.41617V9.65418L2.54669 9.98133H4.09895L4.43444 9.65882V8.42086L4.09407 8.09367H2.54665Z" fill="black"/>
<path fill-rule="evenodd" clip-rule="evenodd" d="M2.90234 10.0723L3.03882 10.2409L3.17919 10.0723H2.89844H2.90234Z" fill="white" fill-opacity="0.24"/>
<path fill-rule="evenodd" clip-rule="evenodd" d="M3.19048 10.0674L3.03884 10.2496L2.89999 10.078H2.89852V10.0762L2.89844 10.0761L2.89852 10.076V10.0674H3.19048ZM2.91342 10.078H3.16806L3.03895 10.2331L2.91342 10.078Z" fill="black"/>
<path fill-rule="evenodd" clip-rule="evenodd" d="M2.90234 7.99805L3.03882 7.82937L3.17919 7.99805H2.89844H2.90234Z" fill="white" fill-opacity="0.24"/>
<path fill-rule="evenodd" clip-rule="evenodd" d="M3.19048 8.00293L3.03884 7.82072L2.89999 7.99233H2.89852V7.99415L2.89844 7.99424L2.89852 7.99431V8.00293H3.19048ZM2.91342 7.99233H3.16806L3.03895 7.83718L2.91342 7.99233Z" fill="black"/>
<path fill-rule="evenodd" clip-rule="evenodd" d="M3.458 7.99805L3.59448 7.82937L3.73486 7.99805H3.4541H3.458Z" fill="white" fill-opacity="0.24"/>
<path fill-rule="evenodd" clip-rule="evenodd" d="M3.74614 8.00293L3.5945 7.82072L3.45565 7.99233H3.45418V7.99415L3.4541 7.99424L3.45418 7.99431V8.00293H3.74614ZM3.46909 7.99233H3.72373L3.59461 7.83718L3.46909 7.99233Z" fill="black"/>
<path fill-rule="evenodd" clip-rule="evenodd" d="M3.458 10.0723L3.59448 10.2409L3.73486 10.0723H3.4541H3.458Z" fill="white" fill-opacity="0.24"/>
<path fill-rule="evenodd" clip-rule="evenodd" d="M3.74614 10.0674L3.5945 10.2496L3.45565 10.078H3.45418V10.0762L3.4541 10.0761L3.45418 10.076V10.0674H3.74614ZM3.46909 10.078H3.72373L3.59461 10.2331L3.46909 10.078Z" fill="black"/>
<path fill-rule="evenodd" clip-rule="evenodd" d="M2.62792 7.99805L2.7644 7.82937L2.90478 7.99805H2.62402H2.62792Z" fill="#CA3745"/>
<path fill-rule="evenodd" clip-rule="evenodd" d="M2.91607 8.00293L2.76442 7.82072L2.62557 7.99233H2.6241V7.99415L2.62402 7.99424L2.6241 7.99431V8.00293H2.91607ZM2.63901 7.99233H2.89365L2.76454 7.83718L2.63901 7.99233Z" fill="black"/>
<path fill-rule="evenodd" clip-rule="evenodd" d="M3.17968 7.99805L3.31616 7.82937L3.45654 7.99805H3.17578H3.17968Z" fill="#CA3745"/>
<path fill-rule="evenodd" clip-rule="evenodd" d="M3.46782 8.00293L3.31618 7.82072L3.17733 7.99233H3.17586V7.99415L3.17578 7.99424L3.17586 7.99431V8.00293H3.46782ZM3.19077 7.99233H3.44541L3.31629 7.83718L3.19077 7.99233Z" fill="black"/>
<path fill-rule="evenodd" clip-rule="evenodd" d="M3.73241 7.99805L3.86889 7.82937L4.00927 7.99805H3.72852H3.73241Z" fill="#CA3745"/>
<path fill-rule="evenodd" clip-rule="evenodd" d="M4.02056 8.00293L3.86892 7.82072L3.73007 7.99233H3.72859V7.99415L3.72852 7.99424L3.72859 7.99431V8.00293H4.02056ZM3.7435 7.99233H3.99814L3.86903 7.83718L3.7435 7.99233Z" fill="black"/>
<path fill-rule="evenodd" clip-rule="evenodd" d="M2.28613 9.82434L2.54202 10.0703H2.28613V9.82434Z" fill="#CA3745"/>
<path fill-rule="evenodd" clip-rule="evenodd" d="M2.27539 10.0811H2.56874L2.27539 9.79907V10.0811ZM2.29662 10.0593V9.84932L2.51504 10.0593H2.29662Z" fill="black"/>
<path fill-rule="evenodd" clip-rule="evenodd" d="M2.10742 9.24219L2.24072 9.03516L2.10742 8.82813L2.23691 8.62109L2.10742 8.41406H2.17217L2.23691 8.55078L2.30166 8.48047H2.36641V8.55078L2.30166 8.62109L2.36641 8.69141V8.75781H2.30166L2.23691 8.69141L2.17217 8.82813L2.23691 8.96484L2.30166 8.89844H2.36641V8.96484L2.30166 9.03516L2.36641 9.10547V9.17578H2.30166L2.23691 9.10547L2.17217 9.24219L2.23691 9.38281L2.30166 9.3125H2.36641V9.38281L2.30166 9.44922L2.36641 9.51953V9.58984H2.30166L2.23691 9.51953L2.17217 9.66016H2.10742L2.23691 9.44922L2.10742 9.24219Z" fill="#00843D"/>
<path fill-rule="evenodd" clip-rule="evenodd" d="M4.6123 8.81086H4.95838L5.04611 8.88677L4.95838 8.96267H4.61718V8.80664L4.6123 8.81086Z" fill="#CA3745"/>
<path fill-rule="evenodd" clip-rule="evenodd" d="M4.61126 8.81792H4.59473L4.62469 8.79199V8.80414H4.96163L5.05732 8.88694L4.96163 8.96973H4.61126V8.81792ZM4.62469 8.81792H4.95672L5.03649 8.88694L4.95672 8.95596H4.62469V8.81792Z" fill="black"/>
<path fill-rule="evenodd" clip-rule="evenodd" d="M2.2847 8.24805L2.10923 8.41673V9.6584L2.2847 9.82708H2.02637V8.24805H2.2847Z" fill="#CA3745"/>
<path fill-rule="evenodd" clip-rule="evenodd" d="M2.0166 8.23828H2.30824L2.11834 8.42084V9.65412L2.30824 9.83667H2.0166V8.23828ZM2.03548 8.25764V9.81731H2.2605L2.09946 9.66251V8.41245L2.2605 8.25764H2.03548Z" fill="black"/>
<path fill-rule="evenodd" clip-rule="evenodd" d="M2.62792 10.0723L2.7644 10.2409L2.90478 10.0723H2.62402H2.62792Z" fill="#CA3745"/>
<path fill-rule="evenodd" clip-rule="evenodd" d="M2.91607 10.0674L2.76442 10.2496L2.62557 10.078H2.6241V10.0762L2.62402 10.0761L2.6241 10.076V10.0674H2.91607ZM2.63901 10.078H2.89365L2.76454 10.2331L2.63901 10.078Z" fill="black"/>
<path fill-rule="evenodd" clip-rule="evenodd" d="M3.17968 10.0723L3.31616 10.2409L3.45654 10.0723H3.17578H3.17968Z" fill="#CA3745"/>
<path fill-rule="evenodd" clip-rule="evenodd" d="M3.46782 10.0674L3.31618 10.2496L3.17733 10.078H3.17586V10.0762L3.17578 10.0761L3.17586 10.076V10.0674H3.46782ZM3.19077 10.078H3.44541L3.31629 10.2331L3.19077 10.078Z" fill="black"/>
<path fill-rule="evenodd" clip-rule="evenodd" d="M3.73241 10.0723L3.86889 10.2409L4.00927 10.0723H3.72852H3.73241Z" fill="#CA3745"/>
<path fill-rule="evenodd" clip-rule="evenodd" d="M4.02056 10.0674L3.86892 10.2496L3.73007 10.078H3.72859V10.0762L3.72852 10.0761L3.72859 10.076V10.0674H4.02056ZM3.7435 10.078H3.99814L3.86903 10.2331L3.7435 10.078Z" fill="black"/>
<path fill-rule="evenodd" clip-rule="evenodd" d="M4.35299 8.24805L4.52847 8.41673V9.6584L4.35299 9.82708H4.61133V8.24805H4.35299Z" fill="#CA3745"/>
<path fill-rule="evenodd" clip-rule="evenodd" d="M4.62012 8.23828H4.32847L4.51838 8.42084V9.65412L4.32847 9.83667H4.62012V8.23828ZM4.60124 8.25764V9.81731H4.37622L4.53726 9.66251V8.41245L4.37622 8.25764H4.60124Z" fill="black"/>
<path fill-rule="evenodd" clip-rule="evenodd" d="M4.35449 9.82434L4.09861 10.0703H4.35449V9.82434Z" fill="#CA3745"/>
<path fill-rule="evenodd" clip-rule="evenodd" d="M4.36523 10.0811H4.07188L4.36523 9.79907V10.0811ZM4.344 10.0593V9.84932L4.12559 10.0593H4.344Z" fill="black"/>
<path fill-rule="evenodd" clip-rule="evenodd" d="M4.35449 8.24597L4.09861 8H4.35449V8.24597Z" fill="#CA3745"/>
<path fill-rule="evenodd" clip-rule="evenodd" d="M4.36523 7.98926H4.07188L4.36523 8.27125V7.98926ZM4.344 8.01104V8.22099L4.12559 8.01104H4.344Z" fill="black"/>
<path fill-rule="evenodd" clip-rule="evenodd" d="M2.28613 8.24597L2.54202 8H2.28613V8.24597Z" fill="#CA3745"/>
<path fill-rule="evenodd" clip-rule="evenodd" d="M2.27539 7.98926H2.56874L2.27539 8.27125V7.98926ZM2.29662 8.01104V8.22099L2.51504 8.01104H2.29662Z" fill="black"/>
<path fill-rule="evenodd" clip-rule="evenodd" d="M2.54319 8.08434L2.20199 8.41233V9.65868L2.54319 9.99136H4.10295L4.44414 9.66337V8.41701L4.09807 8.08434H2.54319ZM2.54319 8L2.11426 8.41233V9.65868L2.54319 10.0757H4.10295L4.53188 9.65868V8.41233L4.09807 8H2.54319Z" fill="#00843D"/>
<path fill-rule="evenodd" clip-rule="evenodd" d="M2.53913 7.99023H4.10145L4.54099 8.40802V9.66276L4.10638 10.0853H2.5391L2.10449 9.66276V8.40805L2.53913 7.99023ZM2.54659 8.00959L2.12337 8.41644V9.65444L2.54663 10.0659H4.09886L4.52211 9.65444V8.41647L4.09404 8.00959H2.54659ZM2.53913 8.07457H4.10148L4.45325 8.41273V9.66748L4.10635 10.001H2.53909L2.19223 9.66275V8.40805L2.53913 8.07457ZM2.54659 8.09393L2.2111 8.41644V9.65444L2.54663 9.98159H4.09889L4.43438 9.65909V8.42112L4.09401 8.09393H2.54659Z" fill="black"/>
<path fill-rule="evenodd" clip-rule="evenodd" d="M4.6123 8.96027H4.95838L5.04611 9.03618L4.95838 9.1121H4.61718V8.95605L4.6123 8.96027Z" fill="white" fill-opacity="0.24"/>
<path fill-rule="evenodd" clip-rule="evenodd" d="M4.61126 8.96636H4.59473L4.62469 8.94043V8.95258H4.96163L5.05732 9.03538L4.96163 9.11818H4.61126V8.96636ZM4.62469 8.96636H4.95672L5.03649 9.03538L4.95672 9.10441H4.62469V8.96636Z" fill="black"/>
<path fill-rule="evenodd" clip-rule="evenodd" d="M4.6123 9.10773H4.95838L5.04611 9.18364L4.95838 9.25955H4.61718V9.10352L4.6123 9.10773Z" fill="#CA3745"/>
<path fill-rule="evenodd" clip-rule="evenodd" d="M4.61126 9.11479H4.59473L4.62469 9.08887V9.10102H4.96163L5.05732 9.18381L4.96163 9.26661H4.61126V9.11479ZM4.62469 9.11479H4.95672L5.03649 9.18381L4.95672 9.25283H4.62469V9.11479Z" fill="black"/>
<path fill-rule="evenodd" clip-rule="evenodd" d="M4.6123 9.25715H4.95838L5.04611 9.33306L4.95838 9.40897H4.61718V9.25293L4.6123 9.25715Z" fill="white" fill-opacity="0.24"/>
<path fill-rule="evenodd" clip-rule="evenodd" d="M4.61126 9.26323H4.59473L4.62469 9.2373V9.24946H4.96163L5.05732 9.33226L4.96163 9.41506H4.61126V9.26323ZM4.62469 9.26323H4.95672L5.03649 9.33226L4.95672 9.40128H4.62469V9.26323Z" fill="black"/>
<path fill-rule="evenodd" clip-rule="evenodd" d="M4.6123 8.65949H4.95838L5.04611 8.7354L4.95838 8.81132H4.61718V8.65527L4.6123 8.65949Z" fill="white" fill-opacity="0.24"/>
<path fill-rule="evenodd" clip-rule="evenodd" d="M4.61126 8.66558H4.59473L4.62469 8.63965V8.6518H4.96163L5.05732 8.7346L4.96163 8.8174H4.61126V8.66558ZM4.62469 8.66558H4.95672L5.03649 8.7346L4.95672 8.80363H4.62469V8.66558Z" fill="black"/>
<path fill-rule="evenodd" clip-rule="evenodd" d="M2.02441 8.81086H1.67834L1.59061 8.88677L1.67834 8.96267H2.01954V8.80664L2.02441 8.81086Z" fill="#CA3745"/>
<path fill-rule="evenodd" clip-rule="evenodd" d="M2.02644 8.81792H2.04297L2.01301 8.79199V8.80414H1.67607L1.58037 8.88694L1.67607 8.96973H2.02644V8.81792ZM2.01301 8.81792H1.68098L1.6012 8.88694L1.68098 8.95596H2.01301V8.81792Z" fill="black"/>
<path fill-rule="evenodd" clip-rule="evenodd" d="M2.02441 8.96027H1.67834L1.59061 9.03618L1.67834 9.1121H2.01954V8.95605L2.02441 8.96027Z" fill="white" fill-opacity="0.24"/>
<path fill-rule="evenodd" clip-rule="evenodd" d="M2.02644 8.96636H2.04297L2.01301 8.94043V8.95258H1.67607L1.58037 9.03538L1.67607 9.11818H2.02644V8.96636ZM2.01301 8.96636H1.68098L1.6012 9.03538L1.68098 9.10441H2.01301V8.96636Z" fill="black"/>
<path fill-rule="evenodd" clip-rule="evenodd" d="M2.02441 9.10773H1.67834L1.59061 9.18364L1.67834 9.25955H2.01954V9.10352L2.02441 9.10773Z" fill="#CA3745"/>
<path fill-rule="evenodd" clip-rule="evenodd" d="M2.02644 9.11479H2.04297L2.01301 9.08887V9.10102H1.67607L1.58037 9.18381L1.67607 9.26661H2.02644V9.11479ZM2.01301 9.11479H1.68098L1.6012 9.18381L1.68098 9.25283H2.01301V9.11479Z" fill="black"/>
<path fill-rule="evenodd" clip-rule="evenodd" d="M2.02441 9.25715H1.67834L1.59061 9.33306L1.67834 9.40897H2.01954V9.25293L2.02441 9.25715Z" fill="white" fill-opacity="0.24"/>
<path fill-rule="evenodd" clip-rule="evenodd" d="M2.02644 9.26323H2.04297L2.01301 9.2373V9.24946H1.67607L1.58037 9.33226L1.67607 9.41506H2.02644V9.26323ZM2.01301 9.26323H1.68098L1.6012 9.33226L1.68098 9.40128H2.01301V9.26323Z" fill="black"/>
<path fill-rule="evenodd" clip-rule="evenodd" d="M2.02441 8.65949H1.67834L1.59061 8.7354L1.67834 8.81132H2.01954V8.65527L2.02441 8.65949Z" fill="white" fill-opacity="0.24"/>
<path fill-rule="evenodd" clip-rule="evenodd" d="M2.02644 8.66558H2.04297L2.01301 8.63965V8.6518H1.67607L1.58037 8.7346L1.67607 8.8174H2.02644V8.66558ZM2.01301 8.66558H1.68098L1.6012 8.7346L1.68098 8.80363H2.01301V8.66558Z" fill="black"/>
<path fill-rule="evenodd" clip-rule="evenodd" d="M1.50293 8.16819V9.90184H1.93674V10.3189H4.70043V9.90184H5.12936V8.16819H4.70043V7.75586H1.93674V8.16819H1.50293ZM1.59067 8.24784V9.82687H2.0196V10.2392H4.61269V9.82687H5.0465V8.24784H4.61269V7.8402H2.0196V8.25253H1.59067V8.24784Z" fill="#970000"/>
<path fill-rule="evenodd" clip-rule="evenodd" d="M1.9299 7.74902H4.70775V8.16135H5.13668V9.90952H4.70775V10.3265H1.9299V9.90952H1.49609V8.16135H1.9299V7.74902ZM1.94406 7.76354V8.17587H1.51025V9.895H1.94406V10.312H4.69359V9.895H5.12253V8.17587H4.69359V7.76354H1.94406ZM2.01276 7.83336H4.62001V8.24101H5.05382V9.83455H4.62001V10.2469H2.01276V9.83455H1.58383V8.24827H1.59091V8.24569H2.01276V7.83336ZM1.59799 8.26021V9.82004H2.02692V10.2324H4.60586V9.82004H5.03966V8.25553H4.60586V7.84788H2.02692V8.26021H1.59799Z" fill="black"/>
<path fill-rule="evenodd" clip-rule="evenodd" d="M5.47581 1.6799L5.21748 1.35999V1.12118L4.95914 0.882365H4.44247L4.00866 0.643555H2.62925L2.19545 0.882365H1.67878L1.42044 1.12118V1.35999L1.16211 1.6754V2.31973L1.42044 2.63514V2.87846L1.67878 3.11727H2.19545L2.62925 3.35608H4.00866L4.44247 3.11727H4.95914L5.22235 2.87846V2.63965L5.48068 2.31973V1.6754L5.47581 1.6799Z" fill="#CA3745"/>
<path fill-rule="evenodd" clip-rule="evenodd" d="M2.62762 0.636719H4.01051L4.44432 0.875529H4.96191L5.22452 1.11829V1.3577L5.47664 1.66993L5.48773 1.65968V2.32258L5.2294 2.6425V2.88195L4.96188 3.12467H4.44432L4.01051 3.36348H2.62762L2.19381 3.12467H1.67622L1.41361 2.88191V2.63802L1.15527 2.32261V1.67309L1.41361 1.35768V1.11829L1.67622 0.875529H2.19381L2.62762 0.636719ZM5.47385 1.68879L5.21064 1.36283V1.12463L4.95658 0.889768H4.44083L4.00702 0.650957H2.63111L2.1973 0.889768H1.68155L1.42749 1.12463V1.36286L1.16916 1.67827V2.31742L1.42749 2.63283V2.87558L1.68155 3.11044H2.1973L2.63111 3.34925H4.00702L4.44083 3.11044H4.95662L5.21551 2.87554V2.63737L5.47385 2.31745V1.68879Z" fill="black"/>
<path fill-rule="evenodd" clip-rule="evenodd" d="M1.24707 2V2.23828L1.50605 2.55859V2.79687L1.76504 3.03906H2.28301L2.71719 3.27344H3.31895V2.00391H1.24707V2Z" fill="white" fill-opacity="0.24"/>
<path fill-rule="evenodd" clip-rule="evenodd" d="M2.59092 2.55859L2.2748 2.76563H2.08437L2.14912 2.83203L2.02344 2.96875L2.08818 3.03906L2.27861 2.96875L2.33955 3.03906L2.36621 2.85547L2.7166 2.63672L2.59092 2.55859Z" fill="#CA3745"/>
<path fill-rule="evenodd" clip-rule="evenodd" d="M2.24473 2.39844L1.92861 2.60547H1.74199L1.80293 2.67188L1.68105 2.80859L1.74199 2.87891L1.93242 2.80859L1.99336 2.87891L2.02383 2.69531L2.37041 2.48047L2.24473 2.40234V2.39844ZM2.07334 2.07812L1.75723 2.28516H1.5668L1.63154 2.35547L1.50586 2.49219L1.57061 2.55859L1.76104 2.48828L1.82197 2.55859L1.84863 2.375L2.19902 2.16016L2.07334 2.08203V2.07812Z" fill="#CA3745"/>
<path fill-rule="evenodd" clip-rule="evenodd" d="M5.39023 2V1.76172L5.13125 1.44141V1.20312L4.87227 0.960938H4.3543L3.92393 0.722656H3.31836V2H5.39023Z" fill="white" fill-opacity="0.24"/>
<path fill-rule="evenodd" clip-rule="evenodd" d="M3.31836 3.27734H3.1584L2.97559 3.11719H2.67852L2.51855 3.03906L2.59854 2.96094L2.7585 3.03906H2.91846L3.07842 2.79688L3.31836 2.875V3.03906H3.07842L3.31836 3.27344V3.27734Z" fill="#CA3745"/>
<path fill-rule="evenodd" clip-rule="evenodd" d="M1.24707 2V1.76172L1.50605 1.44141V1.20312L1.76504 0.960938H2.28301L2.71719 0.722656H3.31895V2H1.24707Z" fill="white"/>
<path fill-rule="evenodd" clip-rule="evenodd" d="M3.31836 0.722656H3.1584L2.97559 0.878906H2.67852L2.51855 0.960938L2.59854 1.03906L2.7585 0.960938H2.91846L3.07842 1.20313L3.31836 1.125V0.960938H3.07842L3.31836 0.722656Z" fill="#CA3745"/>
<path fill-rule="evenodd" clip-rule="evenodd" d="M3.31836 0.722656H3.47832L3.66494 0.878906H3.9582L4.11816 0.960938L4.04199 1.03906L3.87822 0.960938H3.71826L3.5583 1.20313L3.31836 1.125V0.960938H3.5583L3.31836 0.722656Z" fill="#CA3745"/>
<path fill-rule="evenodd" clip-rule="evenodd" d="M5.39023 2V2.23828L5.13125 2.55859V2.79687L4.87227 3.03906H4.3543L3.92393 3.27344H3.31836V2.00391H5.39023V2Z" fill="white"/>
<path fill-rule="evenodd" clip-rule="evenodd" d="M3.31836 3.27734H3.47832L3.66494 3.11719H3.9582L4.11816 3.03906L4.04199 2.96094L3.87822 3.03906H3.71826L3.5583 2.79688L3.31836 2.875V3.03906H3.5583L3.31836 3.27344V3.27734ZM2.24434 1.59766L1.92822 1.39453H1.7416L1.80254 1.32812L1.68066 1.19141L1.7416 1.12109L1.93203 1.19141L1.99297 1.12109L2.02344 1.30469L2.37002 1.51953L2.24434 1.59766ZM4.04961 1.44141L4.36191 1.23438H4.55234L4.4876 1.16797L4.61328 1.03125L4.55234 0.960938L4.36191 1.03125L4.30098 0.960938L4.27051 1.14453L3.92393 1.36328L4.04961 1.44141Z" fill="#CA3745"/>
<path fill-rule="evenodd" clip-rule="evenodd" d="M2.59121 1.44141L2.2751 1.23438H2.08467L2.14941 1.16797L2.02373 1.03125L2.08848 0.960938L2.27891 1.03125L2.33984 0.960938L2.3665 1.14453L2.71689 1.35937L2.59121 1.4375V1.44141ZM2.06943 1.92188L1.75332 1.71484H1.56289L1.62764 1.64453L1.50195 1.50781L1.57432 1.44531L1.76475 1.51562L1.82568 1.44531L1.85234 1.62891L2.20273 1.84375L2.07705 1.92188H2.06943Z" fill="#CA3745"/>
<path fill-rule="evenodd" clip-rule="evenodd" d="M1.40234 2H1.47852L1.5585 2.07812L1.63848 2H3.31807V3.11719H3.24189L3.31807 3.19531V3.28125L3.07812 3.04297V2.96484H3.15811V3.04297H3.23809V2.96484L2.59062 2.61328H2.04219V2.26172L1.80225 2.08594H1.64229L1.5623 2.16406L1.63848 2.24219H1.5623L1.40234 2.00781V2Z" fill="white"/>
<path fill-rule="evenodd" clip-rule="evenodd" d="M1.40234 2H1.47852L1.5585 1.92188L1.63848 2H3.31807V0.882813H3.24189L3.31807 0.804688V0.722656L3.07812 0.960938V1.03906H3.15811V0.960938H3.23809V1.03906L2.59062 1.39453H2.04219V1.74219L1.80225 1.92188H1.64229L1.5623 1.84375L1.63848 1.76172H1.5623L1.40234 2Z" fill="white" fill-opacity="0.24"/>
<path fill-rule="evenodd" clip-rule="evenodd" d="M1.76465 2H3.31855V2.95703L2.6292 2.55859H2.11123V2.23828L1.76846 2H1.76465Z" fill="#00843D"/>
<path fill-rule="evenodd" clip-rule="evenodd" d="M4.39238 1.60156L4.7085 1.39453H4.89893L4.83418 1.32812L4.95986 1.19141L4.89893 1.12109L4.7085 1.19141L4.64756 1.12109L4.61709 1.30469L4.27051 1.51953L4.39238 1.59766V1.60156ZM4.56758 1.92188L4.88369 1.71484H5.07031L5.00557 1.64453L5.13125 1.50781L5.07031 1.44141L4.87988 1.51172L4.81895 1.44141L4.78848 1.625L4.44189 1.83984L4.56758 1.91797V1.92188Z" fill="#CA3745"/>
<path fill-rule="evenodd" clip-rule="evenodd" d="M5.23789 2H5.15791L5.07793 1.92188L4.99795 2H3.31836V0.882813H3.39834L3.31836 0.804688V0.722656L3.5583 0.960938V1.03906H3.47832V0.960938H3.39834V1.03906L4.0458 1.39453H4.59424V1.74219L4.83799 1.92188H4.99795L5.07412 1.84375L4.99795 1.76172H5.07412L5.23789 2Z" fill="white"/>
<path fill-rule="evenodd" clip-rule="evenodd" d="M4.87227 2H3.31836V1.04297L4.01152 1.44141H4.52949V1.76172L4.87607 2H4.87227Z" fill="#00843D"/>
<path fill-rule="evenodd" clip-rule="evenodd" d="M4.04951 2.55859L4.36182 2.76563H4.55225L4.4875 2.83203L4.61318 2.96875L4.55225 3.03906L4.36182 2.96875L4.30088 3.03906L4.27041 2.85547L3.92383 2.63672L4.04951 2.55859Z" fill="#CA3745"/>
<path fill-rule="evenodd" clip-rule="evenodd" d="M4.39238 2.39844L4.7085 2.60547H4.89893L4.83418 2.67188L4.95986 2.80859L4.89893 2.87891L4.7085 2.80859L4.64756 2.87891L4.61709 2.69531L4.27051 2.48047L4.39238 2.40234V2.39844ZM4.56758 2.07812L4.88369 2.28516H5.07031L5.00557 2.35156L5.13125 2.48828L5.07031 2.55859L4.87988 2.48828L4.81895 2.55859L4.78848 2.375L4.44189 2.16016L4.56758 2.08203V2.07812Z" fill="#CA3745"/>
<path fill-rule="evenodd" clip-rule="evenodd" d="M5.23789 2H5.15791L5.07793 2.07812L4.99795 2H3.31836V3.11719H3.39834L3.31836 3.19531V3.28125L3.5583 3.04297V2.96484H3.47832V3.04297H3.39834V2.96484L4.0458 2.61328H4.59424V2.26172L4.83799 2.08594H4.99795L5.07412 2.16406L4.99795 2.24219H5.07412L5.23789 2.00781V2Z" fill="white" fill-opacity="0.24"/>
<path fill-rule="evenodd" clip-rule="evenodd" d="M4.87246 2H3.31855V2.95703L4.01172 2.55859H4.52969V2.23828L4.87627 2H4.87246ZM1.76465 2H3.31855V1.04297L2.6292 1.44141H2.11123V1.76172L1.76846 2H1.76465Z" fill="#CA3745"/>
<path fill-rule="evenodd" clip-rule="evenodd" d="M3.48984 2L3.92402 1.76172H4.18301L4.09541 1.68359L4.27061 1.51953L4.18301 1.44141L3.92402 1.51953L3.83643 1.44141L3.79834 1.65625L3.31846 1.90625L3.48984 2ZM3.14707 2L2.7167 2.23828H2.45771L2.5415 2.31641L2.37012 2.48047L2.45771 2.55859L2.7167 2.48047L2.80049 2.55859L2.83857 2.34375L3.31846 2.09375L3.14707 2Z" fill="#CA3745"/>
<path fill-rule="evenodd" clip-rule="evenodd" d="M3.14717 2L2.7168 1.76172H2.45781L2.54541 1.68359L2.37402 1.51953L2.46162 1.44141L2.72061 1.51953L2.80439 1.44141L2.84248 1.65625L3.32236 1.90625L3.15098 2H3.14717ZM3.48994 2L3.92412 2.23828H4.18311L4.09551 2.31641L4.2707 2.48047L4.18311 2.55859L3.92412 2.48047L3.83652 2.55859L3.79844 2.34375L3.31855 2.09375L3.48994 2Z" fill="#00843D"/>
<path fill-rule="evenodd" clip-rule="evenodd" d="M2.80078 2L3.31875 1.60156L3.83672 2L3.31875 2.39844L2.80078 2Z" fill="white"/>
<path fill-rule="evenodd" clip-rule="evenodd" d="M1.63926 2.16016L1.71924 2.23828L1.64307 2.31641H1.55928L1.31934 2H1.39932L1.55928 2.23828H1.63926L1.56309 2.16016L1.63926 2.08203H1.80303V2.16016H1.64307H1.63926Z" fill="#CA3745"/>
<path fill-rule="evenodd" clip-rule="evenodd" d="M1.63926 1.83984L1.71924 1.76172L1.64307 1.68359H1.55928L1.31934 2H1.39932L1.55928 1.76172H1.63926L1.56309 1.83984L1.63926 1.91797H1.80303V1.83984H1.64307H1.63926ZM4.99844 2.16016L4.92227 2.23828L4.99844 2.31641H5.07842L5.31836 2H5.24219L5.07842 2.23828H5.00225L5.07842 2.16016L5.00225 2.08203H4.83848V2.16016H4.99844Z" fill="#CA3745"/>
<path fill-rule="evenodd" clip-rule="evenodd" d="M5.00166 1.83984L4.91787 1.76172L4.99785 1.68359H5.07783L5.31777 2H5.2416L5.07783 1.76172H5.00166L5.07783 1.83984L5.00166 1.91797H4.83789V1.83984H4.99785H5.00166ZM3.23828 1.68359H3.39824V2.32031H3.23828V1.68359Z" fill="#CA3745"/>
<path fill-rule="evenodd" clip-rule="evenodd" d="M2.99902 1.83984H3.63887V2.16016H2.99902V1.83984Z" fill="#CA3745"/>
<path fill-rule="evenodd" clip-rule="evenodd" d="M2.58754 14.1328L1.15234 14.9443V16.2667L2.60108 17.0782H4.03627L5.47146 16.2667V14.9443L4.03627 14.1478H2.60108L2.58754 14.1328Z" fill="#00843D"/>
<path fill-rule="evenodd" clip-rule="evenodd" d="M2.58917 14.123L2.60436 14.1399H4.03826L5.47871 14.9393V16.2703L4.03829 17.0847H2.59949L1.14551 16.2703V14.9393L2.58917 14.123ZM1.15959 14.9478V16.2617L2.60308 17.0702H4.03466L5.46462 16.2617V14.9479L4.03469 14.1544H2.5982L2.58631 14.1412L1.15959 14.9478Z" fill="black"/>
<path fill-rule="evenodd" clip-rule="evenodd" d="M1.69629 15.4805H1.78008V15.3125H1.95527V15.4766H2.04287V15.0937H1.95527V15.2578H1.78389V15.0937H1.69629V15.4766V15.4805ZM3.90147 16.7539H3.98906V16.5898H4.16045V16.7539H4.24805V16.3672H4.16426V16.5313H3.98906V16.3672H3.90527V16.75L3.90147 16.7539ZM2.50752 14.8398H2.59512V14.6797H2.77031V14.8437H2.8541V14.4609H2.77031V14.625H2.59512V14.4609H2.50752V14.8437V14.8398ZM3.7834 14.8398H3.871V14.6797H4.04619V14.8437H4.13379V14.4609H4.04619V14.625H3.871V14.4609H3.7834V14.8437V14.8398ZM4.59844 15.4805H4.68223V15.3125H4.85742V15.4766H4.94502V15.0937H4.85742V15.2578H4.68223V15.0937H4.59844V15.4766V15.4805ZM4.59844 16.1172H4.68223V15.9531H4.85742V16.1172H4.94502V15.7344H4.85742V15.8984H4.68223V15.7344H4.59844V16.1172Z" fill="#CC0000"/>
<path fill-rule="evenodd" clip-rule="evenodd" d="M3.31855 17.0078V15.6055H5.40947V16.2422L4.01172 17.0078H3.31475H3.31855ZM3.31855 14.207V15.6055H1.23145V14.9688L2.62158 14.207H3.31855Z" fill="white" fill-opacity="0.24"/>
<path fill-rule="evenodd" clip-rule="evenodd" d="M3.31855 14.207V15.6055H5.40947V14.9688L4.01172 14.207H3.31475H3.31855ZM3.31855 17.0078V15.6055H1.23145V16.2422L2.62158 17.0078H3.31855Z" fill="white"/>
<path fill-rule="evenodd" clip-rule="evenodd" d="M4.4347 15.0355H5.27197L4.4347 14.6546V15.0355ZM5.40955 14.9709V15.607H4.08878V15.1002H3.80969L3.45985 14.9098V14.4641L3.67211 14.2701H3.39302V14.9098H3.32227V14.209H4.01803L5.40955 14.9709Z" fill="white" fill-opacity="0.24"/>
<path fill-rule="evenodd" clip-rule="evenodd" d="M3.32031 14.207H4.01839L5.41032 14.9691L5.40945 14.9708H5.41131V15.6088H4.08683V15.1021H3.80913L3.45789 14.9109V14.4632L3.66714 14.2719H3.39478V14.9116H3.32031V14.207ZM5.40759 14.972L4.01746 14.2108H3.32402V14.9078H3.39107V14.2681H3.67688L3.4616 14.4649V14.9086L3.81006 15.0983H4.09054V15.605H5.40759V14.972ZM4.43274 14.6516L5.27262 15.0338L5.27187 15.0374H4.43274V14.6516ZM4.43645 14.6575V15.0336H5.26311L4.43645 14.6575Z" fill="black"/>
<path fill-rule="evenodd" clip-rule="evenodd" d="M2.62109 15.1602V16.0547H2.83057L3.31807 16.3125L3.80557 16.0547H4.01504V15.1641H3.80557L3.31807 14.9102L2.83057 15.1641H2.62109V15.1602Z" fill="#CA3745"/>
<path fill-rule="evenodd" clip-rule="evenodd" d="M2.20593 16.1793H1.36866L2.20593 16.5602V16.1793ZM1.23108 16.244V15.6079H2.55184V16.1146H2.83093L3.18078 16.3051V16.7507L2.96851 16.9448H3.2476V16.3051H3.31836V17.0059H2.6226L1.23108 16.244Z" fill="white" fill-opacity="0.24"/>
<path fill-rule="evenodd" clip-rule="evenodd" d="M3.32031 17.0078H2.62223L1.2303 16.2457L1.23118 16.244H1.22932V15.606H2.5538V16.1128H2.83149L3.18273 16.304V16.7516L2.97348 16.9429H3.24585V16.3032H3.32031V17.0078ZM1.23303 16.2429L2.62316 17.004H3.3166V16.307H3.24956V16.9467H2.96374L3.17902 16.7499V16.3063L2.83057 16.1166H2.55009V15.6098H1.23303V16.2429ZM2.20788 16.5632L1.368 16.1811L1.36876 16.1774H2.20788V16.5632ZM2.20417 16.5574V16.1812H1.37751L2.20417 16.5574Z" fill="black"/>
<path fill-rule="evenodd" clip-rule="evenodd" d="M2.20593 15.0355H1.36866L2.20593 14.6546V15.0355ZM1.23108 14.9709V15.607H2.55184V15.1002H2.83093L3.18078 14.9098V14.4641L2.96851 14.2701H3.2476V14.9098H3.31836V14.209H2.6226L1.23108 14.9709Z" fill="white"/>
<path fill-rule="evenodd" clip-rule="evenodd" d="M3.32031 14.207H2.62223L1.2303 14.9691L1.23118 14.9708H1.22932V15.6088H2.5538V15.1021H2.83149L3.18273 14.9109V14.4632L2.97348 14.2719H3.24585V14.9116H3.32031V14.207ZM1.23303 14.972L2.62316 14.2108H3.3166V14.9078H3.24956V14.2681H2.96374L3.17902 14.4649V14.9086L2.83057 15.0983H2.55009V15.605H1.23303V14.972ZM2.20788 14.6516L1.368 15.0338L1.36876 15.0374H2.20788V14.6516ZM2.20417 14.6575V15.0336H1.37751L2.20417 14.6575Z" fill="black"/>
<path fill-rule="evenodd" clip-rule="evenodd" d="M4.4347 16.1793H5.27197L4.4347 16.5602V16.1793ZM5.40955 16.244V15.6079H4.08878V16.1146H3.80969L3.45985 16.3051V16.7507L3.67211 16.9448H3.39302V16.3051H3.32227V17.0059H4.01803L5.40955 16.244Z" fill="white"/>
<path fill-rule="evenodd" clip-rule="evenodd" d="M3.32031 17.0078H4.01839L5.41032 16.2457L5.40945 16.244H5.41131V15.606H4.08683V16.1128H3.80913L3.45789 16.304V16.7516L3.66714 16.9429H3.39478V16.3032H3.32031V17.0078ZM5.40759 16.2429L4.01746 17.004H3.32402V16.307H3.39107V16.9467H3.67688L3.4616 16.7499V16.3063L3.81006 16.1166H4.09054V15.6098H5.40759V16.2429ZM4.43274 16.5632L5.27262 16.1811L5.27187 16.1774H4.43274V16.5632ZM4.43645 16.5574V16.1812H5.26311L4.43645 16.5574Z" fill="black"/>
<path fill-rule="evenodd" clip-rule="evenodd" d="M1.65029 16.1172H1.73408V15.9219H1.90928V16.1172H1.99687V15.6719H1.90928V15.8633H1.73408V15.668H1.65029V16.1172ZM2.48437 16.7539H2.57197V16.5586H2.74336V16.7539H2.83096V16.3086H2.74336V16.5H2.57197V16.3047H2.48437V16.7578V16.7539ZM1.64648 15.0977H1.73408V15.2891H1.90928V15.0937H1.99687V15.5469H1.90928V15.3516H1.73408V15.543H1.65029V15.0977H1.64648ZM2.48437 14.4609H2.57197V14.6523H2.74336V14.457H2.83096V14.9062H2.74336V14.7148H2.57197V14.9102H2.48437V14.4609ZM3.80596 16.7539H3.89355V16.5586H4.06875V16.7539H4.15635V16.3086H4.06875V16.5H3.89355V16.3047H3.80596V16.7578V16.7539ZM4.64385 15.543H4.73144V15.3516H4.90283V15.5469H4.99043V15.0977H4.90283V15.2891H4.73525V15.0937H4.64766V15.5469L4.64385 15.543Z" fill="#CA3745"/>
<path fill-rule="evenodd" clip-rule="evenodd" d="M3.80566 16.7539H3.89326V16.5586H4.06846V16.7539H4.15605V16.3086H4.06846V16.5H3.89326V16.3047H3.80566V16.7578V16.7539Z" fill="#CA3745"/>
<path fill-rule="evenodd" clip-rule="evenodd" d="M3.80566 16.7539H3.89326V16.5586H4.06846V16.7539H4.15605V16.3086H4.06846V16.5H3.89326V16.3047H3.80566V16.7578V16.7539ZM4.64355 16.1172H4.73115V15.9219H4.90254V16.1172H4.99014V15.6719H4.90254V15.8594H4.73496V15.668H4.64736V16.1172H4.64355ZM3.80566 14.9062H3.89326V14.7148H4.06846V14.9102H4.15605V14.4609H4.06846V14.6523H3.89326V14.457H3.80566V14.9062Z" fill="#CA3745"/>
<path fill-rule="evenodd" clip-rule="evenodd" d="M3.39111 15.6055L3.66914 15.3711H3.80625V15.4883H3.66914V15.5469H3.87861V15.3164H3.66914V15.1406H3.39111V15.3164H3.45967V15.1992H3.59678V15.3164L3.31875 15.5508L3.04072 15.3164V15.1992H3.18164V15.3164H3.2502V15.1406H2.97217V15.3164H2.7627V15.5508H2.97217V15.4922H2.83125V15.375H2.97217L3.2502 15.6094L2.97217 15.8398H2.83125V15.7227H2.97217V15.6641H2.7627V15.8984H2.97217V16.0703H3.2502V15.8984H3.18164V16.0156H3.04072V15.8984L3.31875 15.6641L3.59678 15.8984V16.0156H3.45967V15.8984H3.39111V16.0703H3.66914V15.8984H3.87861V15.6641H3.66914V15.7227H3.80625V15.8398H3.66914L3.39111 15.6055Z" fill="white"/>
<path fill-rule="evenodd" clip-rule="evenodd" d="M1.36721 5.73913L1.50086 5.59687H2.31062L2.91597 4.97168H3.72572L4.33107 5.60062H5.14083L5.27448 5.73913L5.14083 5.87765H4.32714L3.72179 6.50659H2.91204L2.31062 5.87765H1.49693L1.36328 5.73913H1.36721Z" fill="#CA3745"/>
<path fill-rule="evenodd" clip-rule="evenodd" d="M1.43652 5.75077L1.50972 5.6827H2.34415L2.96997 5.02246H3.66533L4.29481 5.6861H5.12924L5.19877 5.75417L5.12924 5.81883H4.29481L3.73486 6.41441H2.90043L2.34415 5.81883H1.50606L1.43652 5.75077Z" fill="#CA3745"/>
<path fill-rule="evenodd" clip-rule="evenodd" d="M2.96746 5.0166H3.66724L4.29672 5.68024H5.13104L5.20615 5.75377L5.13096 5.8237H4.29673L3.73679 6.41927H2.89791L2.34162 5.8237H1.50367L1.43262 5.75415L1.43623 5.75027L1.43272 5.7463L1.5074 5.67684H2.34164L2.96746 5.0166ZM1.4439 5.75037L1.50786 5.81297H2.34608L2.90237 6.40855H3.73235L4.29229 5.81297H5.12692L5.1908 5.75357L5.12685 5.69097H4.29231L3.66282 5.02732H2.97188L2.34606 5.68756H1.51144L1.4439 5.75037Z" fill="black"/>
<path fill-rule="evenodd" clip-rule="evenodd" d="M3.65929 5.81029L3.92659 6.08732L3.79294 6.22584L3.72219 6.15845H3.65929V6.22584L3.72612 6.29697H3.8637L3.99735 6.15845V6.01619L3.72612 5.73916L3.99735 5.45838V5.31987L3.8637 5.18135H3.72612L3.65929 5.24874V5.31987H3.72612L3.79687 5.24874L3.93052 5.391L3.65929 5.66803L3.392 5.391L3.65929 5.11022V5.03909H3.59247L3.32517 5.31987L3.05394 5.03909H2.98712V5.11022L3.25442 5.391L2.98712 5.66803L2.71589 5.391L2.85347 5.24874L2.92029 5.31987H2.98712V5.24874L2.92029 5.18135H2.78271L2.64907 5.31987V5.45838L2.92029 5.73916L2.64907 6.01619V6.15845L2.78271 6.29697H2.92029L2.98712 6.22584V6.15845H2.91243L2.84561 6.22584L2.70803 6.08732L2.97926 5.81029L3.24655 6.08732L2.97926 6.3681V6.43548H3.04608L3.31731 6.15845L3.58461 6.43548H3.65143V6.3681L3.38413 6.08732L3.65143 5.81029H3.65929ZM3.32124 5.45838L3.05001 5.73916L3.32124 6.01619L3.58854 5.73916L3.32124 5.45838ZM2.91636 6.50661V7.06816L2.98319 6.99329L3.05001 7.06816L3.11684 6.99329L3.18366 7.06816L3.25442 6.99329L3.32124 7.06816L3.38806 6.99329L3.45489 7.06816L3.52171 6.99329L3.58854 7.06816L3.65536 6.99329L3.72612 7.06816V6.50661H2.91243H2.91636ZM3.72612 4.97171V4.41016L3.65536 4.48503L3.58854 4.41016L3.52171 4.48503L3.45489 4.41016L3.38806 4.48503L3.32124 4.41016L3.25048 4.48503L3.18366 4.41016L3.11684 4.48503L3.05001 4.41016L2.98319 4.48503L2.91636 4.41016V4.97171H3.72612ZM4.86606 5.60064V5.03909L4.80317 5.11397L4.73635 5.03909L4.66952 5.11397L4.59877 5.03909L4.53194 5.11397L4.46512 5.03909L4.39829 5.11397L4.33147 5.03909V5.60064H4.86999H4.86606ZM2.31101 5.60064V5.03909L2.24026 5.11397L2.17343 5.03909L2.10661 5.11397L2.03978 5.03909L1.97296 5.11397L1.90613 5.03909L1.83538 5.11397L1.76855 5.03909V5.60064H2.30708H2.31101ZM4.86999 5.87768V6.43923L4.80317 6.36435L4.73635 6.43923L4.66952 6.36435L4.59877 6.43923L4.53194 6.36435L4.46512 6.43923L4.39829 6.36435L4.33147 6.43923V5.87768H4.86999ZM2.30708 5.87768V6.43923L2.24026 6.36435L2.17343 6.43923L2.10661 6.36435L2.03978 6.43923L1.97296 6.36435L1.90613 6.43923L1.83538 6.36435L1.76855 6.43923V5.87768H2.30708Z" fill="white" fill-opacity="0.24"/>
<path fill-rule="evenodd" clip-rule="evenodd" d="M3.72165 6.50611V6.85428L3.79241 6.78315L3.85923 6.85802L3.92605 6.78315L3.99288 6.85802L4.0597 6.78315L4.12653 6.85802L4.19728 6.78315L4.26411 6.85802L4.33093 6.78315V5.87718L3.72165 6.50611ZM2.91583 6.50611V6.85428L2.84507 6.78315L2.77825 6.85802L2.71142 6.78315L2.6446 6.85802L2.57777 6.78315L2.51095 6.85802L2.44412 6.78315L2.3773 6.85802L2.30654 6.78315V5.87718L2.91583 6.50611ZM2.91583 4.97121V4.62305L2.84507 4.69043L2.77825 4.62305L2.71142 4.69043L2.6446 4.62305L2.57777 4.69043L2.51095 4.62305L2.44412 4.69043L2.3773 4.62305L2.30654 4.69043V5.60015L2.91583 4.97121ZM3.72165 4.97121V4.62305L3.79241 4.69043L3.85923 4.62305L3.92605 4.69043L3.99288 4.62305L4.0597 4.69043L4.12653 4.62305L4.19335 4.69043L4.26411 4.62305L4.33093 4.69043V5.60015L3.72165 4.97121ZM1.76802 6.29647L1.70119 6.22534L1.63437 6.30021L1.56755 6.22534L1.50072 6.30021L1.4339 6.22534L1.36314 6.30021L1.29632 6.22534L1.22949 6.30021V5.17711L1.29632 5.25198L1.36314 5.17711L1.4339 5.25198L1.50072 5.17711L1.56755 5.25198L1.63437 5.17711L1.70119 5.25198L1.76802 5.17711V5.60015H1.50072L1.36314 5.73866L1.50072 5.87718H1.76802V6.29647ZM4.86946 6.29647L4.93628 6.22534L5.00311 6.30021L5.06993 6.22534L5.14069 6.30021L5.20751 6.22534L5.27434 6.30021L5.34116 6.22534L5.40798 6.30021V5.17711L5.34116 5.25198L5.27434 5.17711L5.20751 5.25198L5.14069 5.17711L5.06993 5.25198L5.00311 5.17711L4.93628 5.25198L4.86946 5.17711V5.60015H5.14069L5.27434 5.73866L5.14069 5.87718H4.86946V6.29647Z" fill="#00843D"/>
<path fill-rule="evenodd" clip-rule="evenodd" d="M2.58179 6.55144C2.58179 6.55144 2.52676 6.60385 2.52676 6.6338C2.52676 6.66001 2.58572 6.71616 2.61324 6.71616C2.64469 6.71616 2.69579 6.66001 2.69579 6.6338C2.69579 6.60759 2.64076 6.55144 2.64076 6.55144V6.43913C2.64076 6.43913 2.75868 6.63006 2.75868 6.5477C2.75868 6.4878 2.64076 6.38672 2.64076 6.38672H2.58179C2.58179 6.38672 2.46387 6.50652 2.46387 6.5477C2.46387 6.63006 2.58179 6.43913 2.58179 6.43913V6.55144Z" fill="white"/>
<path fill-rule="evenodd" clip-rule="evenodd" d="M3.28586 6.76433C3.28586 6.76433 3.21904 6.83921 3.21904 6.87664C3.21904 6.91408 3.28979 6.99644 3.32124 6.99644C3.36055 6.99644 3.41951 6.91783 3.41951 6.88039C3.41951 6.84295 3.35269 6.76433 3.35269 6.76433V6.6071C3.35269 6.6071 3.47061 6.86167 3.47061 6.74562C3.47061 6.67074 3.35269 6.53223 3.35269 6.53223H3.28586C3.28586 6.53223 3.14828 6.70444 3.16794 6.74562C3.16794 6.86167 3.28586 6.6071 3.28586 6.6071V6.76433Z" fill="#CA3745"/>
<path d="M2.5765 5.80592C2.65003 5.80592 2.70964 5.77417 2.70964 5.73499C2.70964 5.69582 2.65003 5.66406 2.5765 5.66406C2.50297 5.66406 2.44336 5.69582 2.44336 5.73499C2.44336 5.77417 2.50297 5.80592 2.5765 5.80592Z" fill="#00843D"/>
<path d="M3.31966 5.80592C3.3932 5.80592 3.45281 5.77417 3.45281 5.73499C3.45281 5.69582 3.3932 5.66406 3.31966 5.66406C3.24613 5.66406 3.18652 5.69582 3.18652 5.73499C3.18652 5.77417 3.24613 5.80592 3.31966 5.80592Z" fill="#00843D"/>
<path d="M4.05892 5.80592C4.13245 5.80592 4.19206 5.77417 4.19206 5.73499C4.19206 5.69582 4.13245 5.66406 4.05892 5.66406C3.98539 5.66406 3.92578 5.69582 3.92578 5.73499C3.92578 5.77417 3.98539 5.80592 4.05892 5.80592Z" fill="#00843D"/>
<path fill-rule="evenodd" clip-rule="evenodd" d="M2.5701 4.93409C2.5701 4.93409 2.51507 4.87794 2.51507 4.85173C2.51507 4.82552 2.57403 4.76562 2.59761 4.76562C2.62906 4.76562 2.68016 4.82178 2.68016 4.84799C2.68016 4.87794 2.62513 4.93409 2.62513 4.93409V5.0464C2.62513 5.0464 2.74699 4.85173 2.74699 4.93409C2.74699 4.99399 2.62906 5.09881 2.62906 5.09881H2.5701C2.5701 5.09881 2.44824 4.97901 2.44824 4.93783C2.44824 4.85547 2.56617 5.04266 2.56617 5.04266V4.93035L2.5701 4.93409Z" fill="white"/>
<path fill-rule="evenodd" clip-rule="evenodd" d="M3.27026 4.71665C3.27026 4.71665 3.20344 4.64177 3.20344 4.60434C3.20344 4.5669 3.27812 4.48828 3.30564 4.48828C3.34495 4.48828 3.40784 4.56315 3.40784 4.60059C3.40784 4.63803 3.34102 4.72039 3.34102 4.72039V4.87014C3.34102 4.87014 3.45894 4.61931 3.45894 4.73536C3.45894 4.81024 3.34102 4.9525 3.34102 4.9525H3.26633C3.26633 4.9525 3.12875 4.77654 3.14841 4.73536C3.14841 4.62305 3.26633 4.87388 3.26633 4.87388V4.71665H3.27026Z" fill="#CA3745"/>
<path fill-rule="evenodd" clip-rule="evenodd" d="M4.01646 6.55136C4.01646 6.55136 3.96143 6.60377 3.96143 6.63372C3.96143 6.65992 4.02039 6.71608 4.04791 6.71608C4.07936 6.71608 4.13046 6.65992 4.13046 6.63372C4.13046 6.60751 4.07542 6.55136 4.07542 6.55136V6.43905C4.07542 6.43905 4.19335 6.62997 4.19335 6.54761C4.19335 6.48771 4.07542 6.38664 4.07542 6.38664H4.01253C4.01253 6.38664 3.89461 6.50643 3.89461 6.54761C3.89461 6.62997 4.01253 6.43905 4.01253 6.43905V6.55136H4.01646ZM4.00467 4.93409C4.00467 4.93409 3.94964 4.87794 3.94964 4.84799C3.94964 4.82552 4.0086 4.76562 4.03218 4.76562C4.06363 4.76562 4.11473 4.82178 4.11473 4.84799C4.11473 4.87794 4.0597 4.93409 4.0597 4.93409V5.0464C4.0597 5.0464 4.18156 4.85173 4.18156 4.93409C4.18156 4.99399 4.06363 5.09881 4.06363 5.09881H4.00467C4.00467 5.09881 3.88281 4.97901 3.88281 4.93783C3.88281 4.85547 4.00074 5.04266 4.00074 5.04266V4.93035L4.00467 4.93409Z" fill="white"/>
<path fill-rule="evenodd" clip-rule="evenodd" d="M1.99654 6.16232C1.99654 6.16232 1.92186 6.21473 1.92186 6.23719C1.92186 6.2634 2.00047 6.31955 2.03585 6.31581C2.07516 6.31581 2.14591 6.26714 2.14591 6.24094C2.14591 6.21473 2.07123 6.16232 2.07123 6.16232V6.0575C2.07123 6.0575 2.20488 6.22596 2.20488 6.15109C2.20488 6.09868 2.07123 6.00508 2.07123 6.00508H1.99654C1.99654 6.00508 1.84324 6.12488 1.86682 6.15109C1.86682 6.22596 1.99654 6.0575 1.99654 6.0575V6.16232ZM1.98082 5.3724C1.98082 5.3724 1.90613 5.31999 1.90613 5.29379C1.90613 5.26758 1.98475 5.21517 2.02013 5.21891C2.05943 5.21891 2.13019 5.26758 2.13019 5.29379C2.13019 5.31999 2.0555 5.36866 2.0555 5.36866V5.47348C2.0555 5.47348 2.18915 5.30502 2.18915 5.38364C2.18915 5.4323 2.0555 5.52589 2.0555 5.52589H1.98082C1.98082 5.52589 1.82751 5.40984 1.8511 5.38364C1.8511 5.30876 1.98082 5.47348 1.98082 5.47348V5.3724ZM4.58697 6.1436C4.58697 6.1436 4.50835 6.19601 4.50835 6.22222C4.50835 6.24842 4.5909 6.30083 4.62628 6.30083C4.66559 6.30083 4.73634 6.24842 4.73634 6.22596C4.73634 6.19601 4.65773 6.1436 4.65773 6.1436V6.04252C4.65773 6.04252 4.79137 6.21099 4.79137 6.13237C4.79137 6.0837 4.66166 5.99011 4.66166 5.99011H4.58304C4.58304 5.99011 4.43367 6.10616 4.45332 6.13237C4.45332 6.21099 4.58697 6.04252 4.58697 6.04252V6.14734V6.1436ZM4.57125 5.35743C4.57125 5.35743 4.49263 5.30502 4.49263 5.27881C4.49263 5.25261 4.57518 5.2002 4.61056 5.2002C4.64986 5.2002 4.72062 5.25261 4.72062 5.27507C4.72062 5.30502 4.642 5.35369 4.642 5.35369V5.45851C4.642 5.45851 4.77565 5.29004 4.77565 5.36492C4.77565 5.41733 4.64593 5.51092 4.64593 5.51092H4.56732C4.56732 5.51092 4.41794 5.39487 4.4376 5.36866C4.4376 5.29004 4.57125 5.45851 4.57125 5.45851V5.35369V5.35743Z" fill="#CA3745"/>
<path fill-rule="evenodd" clip-rule="evenodd" d="M1.44569 6.15489C1.42211 6.10622 1.42997 6.08376 1.42997 6.05756C1.42997 6.03135 1.49679 5.98268 1.52038 5.98268C1.55183 5.98268 1.60293 6.03509 1.60293 6.06504C1.60293 6.09125 1.60293 6.11371 1.59113 6.16238L1.55969 6.08376C1.51645 6.19607 1.51252 6.19607 1.48893 6.08002L1.44962 6.15489H1.44569ZM1.44569 5.35C1.42604 5.39867 1.42997 5.42113 1.42997 5.44734C1.42997 5.47354 1.49679 5.52221 1.52431 5.52221C1.55576 5.52221 1.60686 5.4698 1.60686 5.43985C1.60686 5.41365 1.60686 5.39118 1.59506 5.34252L1.55969 5.42113C1.52038 5.30882 1.51645 5.30882 1.48893 5.42488L1.44962 5.35H1.44569ZM5.08173 6.14366C5.05814 6.09499 5.06207 6.07253 5.06207 6.04633C5.06207 6.02012 5.13283 5.97145 5.15641 5.97145C5.18786 5.97145 5.23896 6.02761 5.23896 6.05381C5.23896 6.08002 5.23896 6.10622 5.22717 6.15115L5.19179 6.07253C5.15248 6.18484 5.14855 6.18859 5.12104 6.07253L5.08173 6.14366ZM5.08173 5.34252C5.05814 5.38744 5.066 5.4099 5.066 5.43985C5.066 5.46231 5.13283 5.51472 5.15641 5.51472C5.18786 5.51472 5.24289 5.45857 5.24289 5.43236C5.24289 5.40241 5.24289 5.37995 5.2311 5.33128L5.19179 5.41365C5.15248 5.29759 5.15248 5.29385 5.12497 5.41365L5.08566 5.33877L5.08173 5.34252Z" fill="white"/>
<path fill-rule="evenodd" clip-rule="evenodd" d="M2.90445 7.08292V6.88077H2.27552V6.48395H1.71734V6.35292H1.22991V5.15497H1.71734V5.02394H2.27552V4.62712H2.90445V4.42871H3.73779V4.62712H4.36673V5.02394H4.92098V5.15871H5.41233V6.35292H4.92491V6.48395H4.37066V6.88077H3.74172V7.07918H2.90838L2.90445 7.08292ZM2.8337 7.14656V6.94815H2.20476V6.55133H1.65051V6.41656H1.16309V5.09133H1.65051V4.9603H2.20476V4.55974H2.8337V4.36133H3.80855V4.55974H4.43748V4.9603H4.99173V5.09133H5.47916V6.41656H4.99173V6.55133H4.43355V6.94815H3.80462V7.14656H2.8337Z" fill="#CA3745"/>
<path fill-rule="evenodd" clip-rule="evenodd" d="M2.83174 4.35938H3.81038V4.55779H4.43932V4.95835H4.99357V5.08938H5.48099V6.41849H4.99357V6.55326H4.43539V6.95009H3.80645V7.1485H2.83364V7.14655H2.83174V6.95009H2.20281V6.55326H1.64856V6.41849H1.16113V5.08938H1.64856V4.95835H2.20281V4.55779H2.83174V4.35938ZM2.83553 7.14461H3.80266V6.9462H4.4316V6.54938H4.98978V6.41461H5.47721V5.09326H4.98978V4.96224H4.43553V4.56167H3.80659V4.36326H2.83553V4.56167H2.2066V4.96224H1.65235V5.09326H1.16492V6.41461H1.65235V6.54938H2.2066V6.9462H2.83553V7.14461ZM2.9025 4.42676H3.73963V4.62517H4.36856V5.02199H4.92281V5.15676H5.41417V6.35485H4.92674V6.48588H4.37249V6.8827H3.74356V7.08111H2.90907L2.9025 7.08737V6.8827H2.27356V6.48588H1.71538V6.35485H1.22796V5.15302H1.71538V5.02199H2.27356V4.62517H2.9025V4.42676ZM2.90629 4.43064V4.62906H2.27735V5.02588H1.71917V5.1569H1.23174V6.35097H1.71917V6.48199H2.27735V6.87882H2.90629V7.07846L2.90758 7.07723H3.73977V6.87882H4.36871V6.48199H4.92296V6.35097H5.41038V5.16065H4.91902V5.02588H4.36477V4.62906H3.73584V4.43064H2.90629Z" fill="black"/>
</g>
<defs>
<clipPath id="clip0_2211_3020">
<rect width="26" height="20" rx="2" fill="white"/>
</clipPath>
</defs>
</svg>
